<svg width="580" height="400" xmlns="http://www.w3.org/2000/svg">
 <!-- Created with Method Draw - http://github.com/duopixel/Method-Draw/ -->

 <g>
  <title>background</title>
  <rect fill="#0b6ded" id="canvas_background" height="402" width="582" y="-1" x="-1"/>
  <g display="none" overflow="visible" y="0" x="0" height="100%" width="100%" id="canvasGrid">
   <rect fill="url(#gridpattern)" stroke-width="0" y="0" x="0" height="100%" width="100%"/>
  </g>
 </g>
 <g>
  <title>Layer 1</title>
  <path stroke="#000" transform="rotate(-1.9841233491897583 30.95117187499965,375.3037719726563) " id="svg_1" d="m34.854514,388.481717c-1.328899,-0.340156 -2.7754,0.157053 -4.195137,-0.338389c1.148196,-0.042699 2.873518,-0.003217 2.568831,-1.021103c0.50239,-1.188663 -0.51716,-2.435699 0.331636,-3.470197c-1.329324,-0.758172 -2.724604,-1.655809 -3.43334,-2.714783c-0.142241,0.427223 -0.273335,0.767079 -0.475491,0.030526c-0.115884,-0.360446 -0.045563,0.890993 -0.488631,0.012912c-0.46732,-0.780792 -1.725454,-2.816677 -2.115823,-0.928374c-0.162131,0.974419 -0.670915,0.283036 -0.903463,-0.335327c-0.236276,-1.190723 -1.08971,-2.293814 -1.313236,-3.482212c0.873631,-0.752813 -0.124542,-0.855314 -0.588865,-0.10427c-0.511302,1.191465 -0.949317,2.370678 -0.415927,3.598145c-0.708853,0.346633 -2.077063,-1.613095 -1.447764,-2.36482c0.545944,-0.850569 0.42456,-1.718753 0.515411,-2.294133c0.499174,-0.649072 -0.485686,-1.354411 0.037827,-2.046595c-1.337754,0.871822 -2.534061,1.474845 -2.158271,2.842588c-0.16605,0.341192 0.55755,2.303103 0.096711,1.580664c-0.870069,-1.410312 -0.870737,-2.972229 -0.215976,-4.411288c0.000806,-1.098398 -1.48949,1.896814 -1.379476,0.428696c-0.141045,-1.107212 0.622298,-2.324727 1.345245,-3.200149c-0.823113,-0.585507 -3.489075,-0.17062 -2.227863,-1.41359c1.241189,-0.631735 1.108172,-1.500445 -0.581093,-0.736601c-2.608515,1.145253 -4.772697,2.61662 -7.163993,3.917255c2.2975,-1.765448 4.887569,-3.473831 8.093268,-4.658233c3.108212,-1.170029 7.615217,-1.290992 10.297229,0.38574c0.682177,0.718226 2.267807,1.194346 2.645878,1.840918c-0.277926,0.96913 0.768874,1.449679 0.881253,2.301462c0.660585,0.657261 -0.595987,1.838927 1.283731,1.498297c2.138259,-0.001797 5.064572,-0.284998 5.231837,-1.879204c0.853372,-2.295985 1.246227,-4.861131 3.978826,-6.688435c1.518703,-0.530711 0.575388,-0.389469 -0.534402,-0.476883c-0.981115,-0.682567 0.990316,-1.77828 1.960864,-1.903179c-0.167431,-1.613144 1.586193,0.967084 2.087502,-0.217307c0.752212,0.008551 1.11893,1.087395 1.576219,0.206823c1.363715,0.689781 2.80502,1.733203 1.003623,2.693817c2.049372,0.587302 -2.088232,0.206965 -0.323015,1.106756c1.456872,0.841727 0.42704,2.396633 -0.768877,3.074267c-0.04645,0.509501 1.402197,1.249723 1.69347,1.867841c1.504849,1.741437 1.806594,3.813219 1.229828,5.721519c-0.812078,1.798598 -3.834324,2.581276 -5.97124,3.72388c-1.825381,0.894559 -1.18312,2.463557 -2.047383,3.638335c0.085932,0.678363 0.719336,1.450854 1.619304,1.860348c1.304233,0.435685 2.832176,0.71695 3.886729,1.354842c-0.963128,0.300668 -2.926863,-0.919635 -2.945857,0.035117c-1.430767,-1.111023 -3.578634,-0.365516 -5.151253,-1.219941c1.308719,0.149088 3.009886,0.072248 1.576721,-0.865084c-0.565893,-0.792676 -2.270329,-1.066223 -2.315546,-2.024246c-1.606013,0.60272 -2.698836,1.423311 -3.86504,2.241495c-1.936004,-0.072294 -2.019478,2.260597 0.071015,2.225985c0.858519,0.131251 4.080611,0.846354 1.543322,0.661638c-0.756282,-0.080776 -1.576743,-0.363712 -1.553615,0.167165c-0.346813,-0.03729 -0.656445,-0.140411 -0.975703,-0.22269l0.000002,0z" stroke-width="1.5" fill="#fff"/>
  <path id="svg_8" d="m479.022507,83.31381c0,-2.285425 0,-4.570857 0,-6.856283c21.714294,0 43.428588,0 65.142883,0c0,4.570857 0,9.141712 0,13.712562c-21.714294,0 -43.428588,0 -65.142883,0c0,-2.285425 0,-4.570854 0,-6.856283l0,0.000003zm67.038568,-0.114268c0,-2.323525 0,-4.647043 0,-6.970554c1.148916,0 2.297814,0 3.446715,0c0,4.647033 0,9.294069 0,13.941105c-1.148901,0 -2.297799,0 -3.446715,0c0,-2.323525 0,-4.647036 0,-6.970551zm5.51474,0c0,-2.323525 0,-4.647043 0,-6.970554c1.148908,0 2.297814,0 3.446715,0c0,4.647033 0,9.294069 0,13.941105c-1.148901,0 -2.297807,0 -3.446715,0c0,-2.323525 0,-4.647036 0,-6.970551zm-5.51474,-12.985462c0.594234,-4.20939 -1.184844,-9.250722 -4.818297,-9.101796c-4.210041,-0.308864 -8.485148,-0.05569 -12.669571,-0.415558c-4.059415,-1.841456 -6.283204,-7.734571 -5.709425,-13.218381c-0.66397,-1.58326 -3.506859,-1.130445 -4.67559,-2.865721c-5.696755,-4.321542 -6.462442,-15.909872 -1.691971,-21.763244c1.671093,-2.28153 4.871112,-4.153223 6.988887,-3.572478c0,1.445115 0,2.890233 0,4.335345c-4.377357,0.0648 -7.702657,6.32948 -6.420301,11.818517c1.002497,5.507872 5.468674,7.160525 9.197262,7.23763c2.382526,2.550222 -1.462487,6.947381 0.608097,10.281824c1.401744,4.526952 5.55708,3.050108 8.45418,3.408261c4.162144,0.332342 9.235671,-0.974327 12.256111,3.86762c2.589844,3.748909 1.794486,9.068897 1.927332,13.717459c-1.148901,0 -2.297799,0 -3.446715,0c0,-1.243157 0,-2.486321 0,-3.729482l0,0.000003zm5.46798,-1.698414c0.271368,-5.864105 -1.004652,-12.312905 -4.800613,-15.844561c-3.629189,-3.658916 -8.333453,-2.534559 -12.585035,-2.724542c-2.662299,-3.132181 1.708173,-6.671395 1.238447,-10.442747c0.296604,-4.941036 -2.259406,-9.759961 -5.948576,-10.82126c-2.107593,0.165211 -2.919788,-0.579061 -2.501455,-3.226444c-0.654729,-3.605302 3.314463,-1.042092 4.628252,-0.726012c4.796187,2.282088 7.977465,9.147934 7.216196,15.872172c-0.123804,2.368736 -1.856742,5.745749 1.216363,4.809971c5.974217,-0.41783 11.686205,4.729393 13.798638,12.110403c1.554268,5.219297 1.160245,10.925154 1.231259,16.420904c-1.134614,0 -2.269225,0 -3.403839,0c-0.029874,-1.809284 -0.059764,-3.618636 -0.089636,-5.427883l-0.000003,0z" fill-opacity="null" stroke-opacity="null" stroke-width="1.5" stroke="#000" fill="#fff"/>
  <path stroke="#000" id="svg_9" d="m455.332507,59.454892l0,0c0,-31.480081 27.982243,-56.999893 62.499963,-56.999893l0,0c16.576253,0 32.473538,6.005349 44.194201,16.694944c11.721132,10.689595 18.305888,25.187827 18.305888,40.30495l0,0c0,31.480468 -27.982045,57.000104 -62.500085,57.000104l0,0c-34.51772,0 -62.499963,-25.519636 -62.499963,-57.000104l-0.000004,0zm100.923317,25.498913l0,0c13.76044,-17.246857 11.714978,-41.060808 -4.822449,-56.142736c-16.537436,-15.082054 -42.649217,-16.947515 -61.559757,-4.397861l66.382207,60.540596zm-76.846334,-50.997306c-13.760536,17.246765 -11.715125,41.060716 4.82221,56.14243c16.537289,15.082146 42.649079,16.947592 61.559619,4.398075l-66.381834,-60.540505l0.000004,0z" fill-opacity="null" stroke-opacity="null" stroke-width="1.5" fill="#fff"/>
  <path stroke="#000" id="svg_12" d="m224.87476,270.37954c0.38212,-3.95053 1.27789,-8.03217 3.27722,-11.42213c1.91059,-2.22624 4.99432,-2.15967 7.56975,-2.9213c-3.60852,-0.94258 -6.97692,-2.61152 -10.28193,-4.37737c-5.40967,-2.28721 -10.91615,1.00831 -15.79234,3.32031c-3.62048,1.68512 -7.2018,3.67311 -11.10029,4.50755c-2.55737,-1.73079 -0.42154,-6.64108 1.37679,-8.71435c2.27691,-2.86324 5.64728,-4.34247 8.11571,-6.95706c1.08591,-3.69304 -3.91754,-4.60162 -6.16541,-6.05268c-3.48583,-1.53738 -6.44763,-4.05543 -9.09765,-6.86687c6.15421,-0.34932 11.59816,3.37318 17.15122,5.63334c3.00356,1.05908 5.8364,2.54866 8.64477,4.02211c1.28759,-0.00633 5.65684,0.92477 5.22139,-0.50539c-3.27512,-0.14146 -2.94684,-4.26848 -0.74284,-5.90471c3.23944,-2.48314 7.18866,-3.94911 9.88551,-7.23822c1.18314,-0.92516 1.80576,-3.18815 2.80569,-3.9022c4.31166,3.28245 6.83429,8.46032 9.21315,13.37052c3.87364,0.85252 7.78575,1.544 11.73399,1.7527c3.85566,1.71723 7.14778,4.71007 10.16662,7.74943c2.2876,1.6811 2.89725,6.25552 -0.21232,7.17322c-7.6719,4.02524 -16.2383,5.25574 -24.68659,5.64257c-1.19026,-0.08175 -2.22665,0.04551 -2.23462,1.56982c-0.74413,2.17093 -1.04832,4.69371 -2.44919,6.46133c-1.54603,-0.38516 -0.08138,-4.82133 -1.66917,-2.71357c-3.12316,3.30243 -6.8796,5.77914 -10.72946,7.99398c0,-0.54034 -0.00001,-1.08072 0,-1.62103l0,0z" stroke-opacity="null" stroke-width="1.5" fill="#CFCA6D"/>
  <path stroke="#000" id="svg_13" d="m410.87476,315.37954c0.38212,-3.95053 1.27789,-8.03217 3.27722,-11.42213c1.91059,-2.22624 4.99432,-2.15967 7.56975,-2.9213c-3.60852,-0.94258 -6.97692,-2.61152 -10.28193,-4.37737c-5.40967,-2.28721 -10.91615,1.00831 -15.79234,3.32031c-3.62048,1.68512 -7.2018,3.67311 -11.10029,4.50755c-2.55737,-1.73079 -0.42154,-6.64108 1.37679,-8.71435c2.27691,-2.86324 5.64728,-4.34247 8.11571,-6.95706c1.08591,-3.69304 -3.91754,-4.60162 -6.16541,-6.05268c-3.48583,-1.53738 -6.44763,-4.05543 -9.09765,-6.86687c6.15421,-0.34932 11.59816,3.37318 17.15122,5.63334c3.00356,1.05908 5.8364,2.54866 8.64477,4.02211c1.28759,-0.00633 5.65684,0.92477 5.22139,-0.50539c-3.27512,-0.14146 -2.94684,-4.26848 -0.74284,-5.90471c3.23944,-2.48314 7.18866,-3.94911 9.88551,-7.23822c1.18314,-0.92516 1.80576,-3.18815 2.80569,-3.9022c4.31166,3.28245 6.83429,8.46032 9.21315,13.37052c3.87364,0.85252 7.78575,1.544 11.73399,1.7527c3.85566,1.71723 7.14778,4.71007 10.16662,7.74943c2.2876,1.6811 2.89725,6.25552 -0.21232,7.17322c-7.6719,4.02524 -16.2383,5.25574 -24.68659,5.64257c-1.19026,-0.08175 -2.22665,0.04551 -2.23462,1.56982c-0.74413,2.17093 -1.04832,4.69371 -2.44919,6.46133c-1.54603,-0.38516 -0.08138,-4.82133 -1.66917,-2.71357c-3.12316,3.30243 -6.8796,5.77914 -10.72946,7.99398c0,-0.54034 -0.00001,-1.08072 0,-1.62103l0,0z" stroke-opacity="null" stroke-width="1.5" fill="#CFCA6D"/>
  <path stroke="#000" id="svg_15" d="m327.87476,159.37954c0.38212,-3.95053 1.27789,-8.03217 3.27722,-11.42213c1.91059,-2.22624 4.99432,-2.15967 7.56975,-2.9213c-3.60852,-0.94258 -6.97692,-2.61152 -10.28193,-4.37737c-5.40967,-2.28721 -10.91615,1.00831 -15.79234,3.32031c-3.62048,1.68512 -7.2018,3.67311 -11.10029,4.50755c-2.55737,-1.73079 -0.42154,-6.64108 1.37679,-8.71435c2.27691,-2.86324 5.64728,-4.34247 8.11571,-6.95706c1.08591,-3.69304 -3.91754,-4.60162 -6.16541,-6.05268c-3.48583,-1.53738 -6.44763,-4.05543 -9.09765,-6.86687c6.15421,-0.34932 11.59816,3.37318 17.15122,5.63334c3.00356,1.05908 5.8364,2.54866 8.64477,4.02211c1.28759,-0.00633 5.65684,0.92477 5.22139,-0.50539c-3.27512,-0.14146 -2.94684,-4.26848 -0.74284,-5.90471c3.23944,-2.48314 7.18866,-3.94911 9.88551,-7.23822c1.18314,-0.92516 1.80576,-3.18815 2.80569,-3.9022c4.31166,3.28245 6.83429,8.46032 9.21315,13.37052c3.87364,0.85252 7.78575,1.544 11.73399,1.7527c3.85566,1.71723 7.14778,4.71007 10.16662,7.74943c2.2876,1.6811 2.89725,6.25552 -0.21232,7.17322c-7.6719,4.02524 -16.2383,5.25574 -24.68659,5.64257c-1.19026,-0.08175 -2.22665,0.04551 -2.23462,1.56982c-0.74413,2.17093 -1.04832,4.69371 -2.44919,6.46133c-1.54603,-0.38516 -0.08138,-4.82133 -1.66917,-2.71357c-3.12316,3.30243 -6.8796,5.77914 -10.72946,7.99398c0,-0.54034 -0.00001,-1.08072 0,-1.62103l0,0z" stroke-opacity="null" stroke-width="1.5" fill="#CFCA6D"/>
  <path stroke="#000" id="svg_16" d="m531.87476,194.37954c0.38212,-3.95053 1.27789,-8.03217 3.27722,-11.42213c1.91059,-2.22624 4.99432,-2.15967 7.56975,-2.9213c-3.60852,-0.94258 -6.97692,-2.61152 -10.28193,-4.37737c-5.40967,-2.28721 -10.91615,1.00831 -15.79234,3.32031c-3.62048,1.68512 -7.2018,3.67311 -11.10029,4.50755c-2.55737,-1.73079 -0.42154,-6.64108 1.37679,-8.71435c2.27691,-2.86324 5.64728,-4.34247 8.11571,-6.95706c1.08591,-3.69304 -3.91754,-4.60162 -6.16541,-6.05268c-3.48583,-1.53738 -6.44763,-4.05543 -9.09765,-6.86687c6.15421,-0.34932 11.59816,3.37318 17.15122,5.63334c3.00356,1.05908 5.8364,2.54866 8.64477,4.02211c1.28759,-0.00633 5.65684,0.92477 5.22139,-0.50539c-3.27512,-0.14146 -2.94684,-4.26848 -0.74284,-5.90471c3.23944,-2.48314 7.18866,-3.94911 9.88551,-7.23822c1.18314,-0.92516 1.80576,-3.18815 2.80569,-3.9022c4.31166,3.28245 6.83429,8.46032 9.21315,13.37052c3.87364,0.85252 7.78575,1.544 11.73399,1.7527c3.85566,1.71723 7.14778,4.71007 10.16662,7.74943c2.2876,1.6811 2.89725,6.25552 -0.21232,7.17322c-7.6719,4.02524 -16.2383,5.25574 -24.68659,5.64257c-1.19026,-0.08175 -2.22665,0.04551 -2.23462,1.56982c-0.74413,2.17093 -1.04832,4.69371 -2.44919,6.46133c-1.54603,-0.38516 -0.08138,-4.82133 -1.66917,-2.71357c-3.12316,3.30243 -6.8796,5.77914 -10.72946,7.99398c0,-0.54034 -0.00001,-1.08072 0,-1.62103l0,0z" stroke-opacity="null" stroke-width="1.5" fill="#CFCA6D"/>
  <path stroke="#000" id="svg_17" d="m481.87476,288.37954c0.38212,-3.95053 1.27789,-8.03217 3.27722,-11.42213c1.91059,-2.22624 4.99432,-2.15967 7.56975,-2.9213c-3.60852,-0.94258 -6.97692,-2.61152 -10.28193,-4.37737c-5.40967,-2.28721 -10.91615,1.00831 -15.79234,3.32031c-3.62048,1.68512 -7.2018,3.67311 -11.10029,4.50755c-2.55737,-1.73079 -0.42154,-6.64108 1.37679,-8.71435c2.27691,-2.86324 5.64728,-4.34247 8.11571,-6.95706c1.08591,-3.69304 -3.91754,-4.60162 -6.16541,-6.05268c-3.48583,-1.53738 -6.44763,-4.05543 -9.09765,-6.86687c6.15421,-0.34932 11.59816,3.37318 17.15122,5.63334c3.00356,1.05908 5.8364,2.54866 8.64477,4.02211c1.28759,-0.00633 5.65684,0.92477 5.22139,-0.50539c-3.27512,-0.14146 -2.94684,-4.26848 -0.74284,-5.90471c3.23944,-2.48314 7.18866,-3.94911 9.88551,-7.23822c1.18314,-0.92516 1.80576,-3.18815 2.80569,-3.9022c4.31166,3.28245 6.83429,8.46032 9.21315,13.37052c3.87364,0.85252 7.78575,1.544 11.73399,1.7527c3.85566,1.71723 7.14778,4.71007 10.16662,7.74943c2.2876,1.6811 2.89725,6.25552 -0.21232,7.17322c-7.6719,4.02524 -16.2383,5.25574 -24.68659,5.64257c-1.19026,-0.08175 -2.22665,0.04551 -2.23462,1.56982c-0.74413,2.17093 -1.04832,4.69371 -2.44919,6.46133c-1.54603,-0.38516 -0.08138,-4.82133 -1.66917,-2.71357c-3.12316,3.30243 -6.8796,5.77914 -10.72946,7.99398c0,-0.54034 -0.00001,-1.08072 0,-1.62103l0,0z" stroke-opacity="null" stroke-width="1.5" fill="#CFCA6D"/>
  <path stroke="#000" id="svg_18" d="m262.87476,192.37954c0.38212,-3.95053 1.27789,-8.03217 3.27722,-11.42213c1.91059,-2.22624 4.99432,-2.15967 7.56975,-2.9213c-3.60852,-0.94258 -6.97692,-2.61152 -10.28193,-4.37737c-5.40967,-2.28721 -10.91615,1.00831 -15.79234,3.32031c-3.62048,1.68512 -7.2018,3.67311 -11.10029,4.50755c-2.55737,-1.73079 -0.42154,-6.64108 1.37679,-8.71435c2.27691,-2.86324 5.64728,-4.34247 8.11571,-6.95706c1.08591,-3.69304 -3.91754,-4.60162 -6.16541,-6.05268c-3.48583,-1.53738 -6.44763,-4.05543 -9.09765,-6.86687c6.15421,-0.34932 11.59816,3.37318 17.15122,5.63334c3.00356,1.05908 5.8364,2.54866 8.64477,4.02211c1.28759,-0.00633 5.65684,0.92477 5.22139,-0.50539c-3.27512,-0.14146 -2.94684,-4.26848 -0.74284,-5.90471c3.23944,-2.48314 7.18866,-3.94911 9.88551,-7.23822c1.18314,-0.92516 1.80576,-3.18815 2.80569,-3.9022c4.31166,3.28245 6.83429,8.46032 9.21315,13.37052c3.87364,0.85252 7.78575,1.544 11.73399,1.7527c3.85566,1.71723 7.14778,4.71007 10.16662,7.74943c2.2876,1.6811 2.89725,6.25552 -0.21232,7.17322c-7.6719,4.02524 -16.2383,5.25574 -24.68659,5.64257c-1.19026,-0.08175 -2.22665,0.04551 -2.23462,1.56982c-0.74413,2.17093 -1.04832,4.69371 -2.44919,6.46133c-1.54603,-0.38516 -0.08138,-4.82133 -1.66917,-2.71357c-3.12316,3.30243 -6.8796,5.77914 -10.72946,7.99398c0,-0.54034 -0.00001,-1.08072 0,-1.62103l0,0z" stroke-opacity="null" stroke-width="1.5" fill="#CFCA6D"/>
  <path stroke="#000" id="svg_19" d="m320.87476,275.37954c0.38212,-3.95053 1.27789,-8.03217 3.27722,-11.42213c1.91059,-2.22624 4.99432,-2.15967 7.56975,-2.9213c-3.60852,-0.94258 -6.97692,-2.61152 -10.28193,-4.37737c-5.40967,-2.28721 -10.91615,1.00831 -15.79234,3.32031c-3.62048,1.68512 -7.2018,3.67311 -11.10029,4.50755c-2.55737,-1.73079 -0.42154,-6.64108 1.37679,-8.71435c2.27691,-2.86324 5.64728,-4.34247 8.11571,-6.95706c1.08591,-3.69304 -3.91754,-4.60162 -6.16541,-6.05268c-3.48583,-1.53738 -6.44763,-4.05543 -9.09765,-6.86687c6.15421,-0.34932 11.59816,3.37318 17.15122,5.63334c3.00356,1.05908 5.8364,2.54866 8.64477,4.02211c1.28759,-0.00633 5.65684,0.92477 5.22139,-0.50539c-3.27512,-0.14146 -2.94684,-4.26848 -0.74284,-5.90471c3.23944,-2.48314 7.18866,-3.94911 9.88551,-7.23822c1.18314,-0.92516 1.80576,-3.18815 2.80569,-3.9022c4.31166,3.28245 6.83429,8.46032 9.21315,13.37052c3.87364,0.85252 7.78575,1.544 11.73399,1.7527c3.85566,1.71723 7.14778,4.71007 10.16662,7.74943c2.2876,1.6811 2.89725,6.25552 -0.21232,7.17322c-7.6719,4.02524 -16.2383,5.25574 -24.68659,5.64257c-1.19026,-0.08175 -2.22665,0.04551 -2.23462,1.56982c-0.74413,2.17093 -1.04832,4.69371 -2.44919,6.46133c-1.54603,-0.38516 -0.08138,-4.82133 -1.66917,-2.71357c-3.12316,3.30243 -6.8796,5.77914 -10.72946,7.99398c0,-0.54034 -0.00001,-1.08072 0,-1.62103l0,0z" stroke-opacity="null" stroke-width="1.5" fill="#CFCA6D"/>
  <path stroke="#000" id="svg_20" d="m157.87476,176.37954c0.38212,-3.95053 1.27789,-8.03217 3.27722,-11.42213c1.91059,-2.22624 4.99432,-2.15967 7.56975,-2.9213c-3.60852,-0.94258 -6.97692,-2.61152 -10.28193,-4.37737c-5.40967,-2.28721 -10.91615,1.00831 -15.79234,3.32031c-3.62048,1.68512 -7.2018,3.67311 -11.10029,4.50755c-2.55737,-1.73079 -0.42154,-6.64108 1.37679,-8.71435c2.27691,-2.86324 5.64728,-4.34247 8.11571,-6.95706c1.08591,-3.69304 -3.91754,-4.60162 -6.16541,-6.05268c-3.48583,-1.53738 -6.44763,-4.05543 -9.09765,-6.86687c6.15421,-0.34932 11.59816,3.37318 17.15122,5.63334c3.00356,1.05908 5.8364,2.54866 8.64477,4.02211c1.28759,-0.00633 5.65684,0.92477 5.22139,-0.50539c-3.27512,-0.14146 -2.94684,-4.26848 -0.74284,-5.90471c3.23944,-2.48314 7.18866,-3.94911 9.88551,-7.23822c1.18314,-0.92516 1.80576,-3.18815 2.80569,-3.9022c4.31166,3.28245 6.83429,8.46032 9.21315,13.37052c3.87364,0.85252 7.78575,1.544 11.73399,1.7527c3.85566,1.71723 7.14778,4.71007 10.16662,7.74943c2.2876,1.6811 2.89725,6.25552 -0.21232,7.17322c-7.6719,4.02524 -16.2383,5.25574 -24.68659,5.64257c-1.19026,-0.08175 -2.22665,0.04551 -2.23462,1.56982c-0.74413,2.17093 -1.04832,4.69371 -2.44919,6.46133c-1.54603,-0.38516 -0.08138,-4.82133 -1.66917,-2.71357c-3.12316,3.30243 -6.8796,5.77914 -10.72946,7.99398c0,-0.54034 -0.00001,-1.08072 0,-1.62103l0,0z" stroke-opacity="null" stroke-width="1.5" fill="#CFCA6D"/>
  <path stroke="#000" id="svg_21" d="m398.87476,199.37954c0.38212,-3.95053 1.27789,-8.03217 3.27722,-11.42213c1.91059,-2.22624 4.99432,-2.15967 7.56975,-2.9213c-3.60852,-0.94258 -6.97692,-2.61152 -10.28193,-4.37737c-5.40967,-2.28721 -10.91615,1.00831 -15.79234,3.32031c-3.62048,1.68512 -7.2018,3.67311 -11.10029,4.50755c-2.55737,-1.73079 -0.42154,-6.64108 1.37679,-8.71435c2.27691,-2.86324 5.64728,-4.34247 8.11571,-6.95706c1.08591,-3.69304 -3.91754,-4.60162 -6.16541,-6.05268c-3.48583,-1.53738 -6.44763,-4.05543 -9.09765,-6.86687c6.15421,-0.34932 11.59816,3.37318 17.15122,5.63334c3.00356,1.05908 5.8364,2.54866 8.64477,4.02211c1.28759,-0.00633 5.65684,0.92477 5.22139,-0.50539c-3.27512,-0.14146 -2.94684,-4.26848 -0.74284,-5.90471c3.23944,-2.48314 7.18866,-3.94911 9.88551,-7.23822c1.18314,-0.92516 1.80576,-3.18815 2.80569,-3.9022c4.31166,3.28245 6.83429,8.46032 9.21315,13.37052c3.87364,0.85252 7.78575,1.544 11.73399,1.7527c3.85566,1.71723 7.14778,4.71007 10.16662,7.74943c2.2876,1.6811 2.89725,6.25552 -0.21232,7.17322c-7.6719,4.02524 -16.2383,5.25574 -24.68659,5.64257c-1.19026,-0.08175 -2.22665,0.04551 -2.23462,1.56982c-0.74413,2.17093 -1.04832,4.69371 -2.44919,6.46133c-1.54603,-0.38516 -0.08138,-4.82133 -1.66917,-2.71357c-3.12316,3.30243 -6.8796,5.77914 -10.72946,7.99398c0,-0.54034 -0.00001,-1.08072 0,-1.62103l0,0z" stroke-opacity="null" stroke-width="1.5" fill="#CFCA6D"/>
  <path transform="rotate(2 55.74999999999968,242.24999999999994) " id="svg_22" d="m72.003579,320.038256c-2.933071,-4.174152 -7.494123,-4.650154 -8.590869,-10.591516c-0.85963,-3.231617 -8.963552,-7.565856 -4.167262,-1.765546c3.703585,3.495219 8.103673,16.387242 -1.007929,12.313995c-6.930055,-2.646317 -7.227221,-10.817897 -9.084805,-16.935671c-6.040735,-4.360752 1.561789,-13.581245 -4.942365,-19.16852c-5.520184,-5.832449 -1.675722,-16.755763 -9.563605,-20.89129c-3.959192,-1.671987 -5.672914,9.872315 -6.339535,1.426903c-2.16907,-8.541686 -9.829649,4.152191 -14.937937,2.80644c-4.122095,-0.372857 6.895197,-3.354595 1.637687,-4.157008c-3.091014,1.760623 -5.950949,4.804848 -6.439971,-0.234246c-3.718305,-2.297755 -11.515671,-5.967178 -11.313119,-9.617381c3.228968,-1.055424 14.129596,1.998503 12.24056,-2.244849c-3.24147,-1.279968 -3.8303,-4.778841 0.139862,-2.430636c7.824081,0.255378 16.996129,-2.99425 23.506263,3.221022c3.395708,2.173985 6.734488,9.970976 8.552377,2.39376c5.86002,-7.354094 17.684593,-7.97701 21.297026,-17.49872c0.874163,-4.606723 -2.684773,-7.234993 -5.708199,-8.168116c-0.58821,-1.513934 -1.58953,-7.941533 -4.089699,-4.697964c0.113954,-2.838891 2.459241,-9.62768 -2.735656,-6.622281c-0.526906,-6.046662 4.440987,-12.079237 -2.130867,-16.482491c6.157475,1.188511 4.943248,-6.115539 3.602093,-7.273935c3.650098,-0.539287 7.933659,-3.956929 5.921121,-8.190806c3.963908,7.487645 4.101354,-9.083899 7.364819,-1.941065c6.006425,1.024574 -1.865975,-5.583552 3.658463,-4.108596c3.154516,0.112309 2.453911,-3.596357 5.287749,-0.7973c3.750539,-2.129287 -2.875158,-8.564339 3.180486,-4.09319c2.03569,1.840122 8.516752,6.659675 7.353901,0.299849c5.754214,6.386714 10.282479,-5.932171 15.064008,-8.483292c1.896604,-2.360908 6.020933,-4.859481 2.217222,-0.352766c-2.52517,5.744673 -11.092221,11.959191 -8.787421,17.667357c-2.086207,1.976193 4.209237,4.459926 -0.802199,3.711766c-2.968918,3.334567 3.980355,9.573338 4.534941,14.821431c-1.591809,3.595876 -7.653041,7.678149 -10.104962,7.549124c0.896153,-4.629693 -1.046583,-10.663975 -6.72096,-8.047076c3.178674,6.051642 7.476194,11.83287 10.168744,18.413922c2.631773,6.469488 6.898741,13.940438 12.512528,5.614201c3.578068,-5.306794 13.79972,-5.229972 10.991917,3.388281c-1.435358,8.462873 2.407531,19.632163 -4.976492,25.461686c-4.454449,8.931106 -9.392804,-3.320777 -5.893193,-7.955773c-0.891736,-1.324534 -1.581591,-2.259532 1.027858,-4.070083c-0.538809,-1.358104 7.509555,-6.46765 3.45321,-9.602947c-4.613428,5.443224 -11.363941,11.743779 -9.487895,19.835058c1.522616,5.422134 -11.035191,14.71789 -10.030998,5.719353c0.224933,-3.497136 5.023568,-10.274977 3.918985,-11.148169c-3.503439,6.839752 -8.48725,13.410796 -16.018297,15.441527c-6.264353,0.386257 -9.545874,5.63434 -6.571052,11.457145c0.568515,8.251175 -3.617473,15.718898 -4.581189,23.75258c1.791432,8.520776 12.698167,10.242611 14.178596,18.934454c2.543834,5.837445 -3.819295,4.974764 -6.783954,3.34137l0.000015,0.000005zm-15.5103,-25.420225c-0.918224,-3.85165 -2.807858,10.012395 -0.478541,2.653922l0.348704,-1.300038l0.129837,-1.35389l0,0.000005z" stroke-opacity="null" stroke-width="1.5" stroke="#000" fill="#CFCA6D"/>
  <path id="svg_23" d="m35.624881,11.547675c0,0 1.037723,0.402695 1.141497,0.704712c0.103756,0.302 4.877308,-0.906034 5.915031,-1.610745c1.037723,-0.704712 3.42449,-0.626627 3.42449,-1.912779c0,-0.402695 -0.473449,-1.447169 0.415096,-1.107407c0.172798,0.066102 0.207566,0.604051 0.207566,0.604051c0,0 -0.181596,-0.497085 -0.447532,-0.358661c-0.12985,0.06761 0.188309,0.900898 0.34374,1.164034c0,0 8.687302,-1.307424 10.584809,-0.805373c0.761009,0.201322 3.320751,0.503356 3.251551,1.577186c0,0 -3.528105,1.173356 -4.081725,5.46988c-0.069165,0.536898 -4.525635,-0.683542 -7.471623,4.731575c-0.657235,1.208051 -0.830192,0.771796 -1.03774,0.704712c-0.207548,-0.067119 -4.358456,-2.583949 -7.782945,2.214762c0,0 0.172957,-0.033542 0.207548,0.100678c0.034591,0.134237 1.694958,-0.369119 1.764141,0.50339c0,0 -0.773641,-0.340407 -0.600684,-0.004797c0.172939,0.335559 0.085224,0.720322 -0.021942,0.508119c-0.020529,-0.040644 -0.449687,-0.402678 -0.31134,-0.100644c0.138365,0.302 -0.664726,0.994949 -0.707197,0.893322c-0.169017,-0.404475 0.395892,-0.85978 -0.64183,-1.296c-1.03774,-0.436254 -3.908786,0.604017 -5.396178,3.825525c0,0 -0.103774,0.16778 -0.311322,-0.100678c-0.207548,-0.268458 -1.660367,-3.859101 -4.669778,-4.026881c0,0 -0.138365,0.503356 -0.622626,0.604034c-0.484279,0.100678 -0.380487,1.644288 -0.622644,1.10739c-0.242139,-0.536915 -0.192107,0.103797 -0.207548,0c-0.056109,-0.37761 0.177462,-0.967034 -0.51887,-0.704712c-0.091213,0.034356 -0.138365,0.570491 -0.311304,0.302034c-0.172957,-0.268458 0.213431,-0.749203 0.455553,-0.950542c0.242139,-0.201339 -0.80689,-0.223576 -0.351779,-0.458881c0.460658,-0.238169 1.764123,0.536932 1.245271,-0.302c-0.51887,-0.838949 -3.501516,-4.75727 -7.782945,-2.114118c-0.761009,0.469797 -0.51887,-0.100695 -0.933966,-0.604068c-0.415078,-0.503339 -3.323719,-5.297897 -7.264075,-4.731575c-0.933966,0.134254 -0.51887,-0.704695 -0.830174,-1.006712c-0.31134,-0.302017 -2.190791,-5.584508 -4.047134,-5.13427c-0.415096,0.100644 -0.117324,-1.724881 3.42449,-1.510084c0.553461,0.033542 0.207548,-0.402695 0.830192,-0.302034c0.622626,0.100695 8.301798,1.140966 9.131972,1.409423c0.830192,0.268458 1.764141,0.523712 1.764141,-1.10739c0,-0.031475 -0.13621,-0.113254 -0.415096,0.100661c-0.123225,-0.106966 0.899375,-0.671152 0.726418,0.402695c-0.172957,1.07383 -0.551006,0.785186 0.103774,1.107373c0.927147,0.456203 1.661727,1.247525 3.113168,1.308762c0.795601,0.033559 4.80756,1.94422 5.7075,1.711423c0.51887,-0.134237 1.210679,-0.436254 0.933948,-0.604051c-0.276713,-0.167763 -1.210679,-1.24161 -1.141497,-1.812084c0.069183,-0.570474 0.276731,-1.006712 0,-1.208068c-0.276731,-0.201339 0.311322,-0.771813 0.830192,-0.100678c0.518852,0.671152 0.518852,1.174508 0.933948,1.208068c0.415096,0.033576 1.176106,-0.167763 1.452819,0c0,0 1.210697,-1.677847 1.867897,-1.409423c0.657235,0.268475 0.138365,0.637593 0.207548,0.906051c0.069183,0.268458 -0.691809,2.281932 -1.452801,2.214796z" stroke-opacity="null" stroke-width="1.5" stroke="#000" fill="#000000"/>
  <path id="svg_24" d="m391.550813,50.537182c-0.187053,-0.68157 2.838942,-2.300137 5.043874,-3.682172c1.750599,-1.092886 3.662093,-2.417627 5.482695,-3.586461c1.521788,-0.976931 4.880043,-2.626021 5.258571,-3.694134c0.442235,-1.247869 1.233037,-3.54747 2.082435,-5.263505c0.646143,-1.311338 1.872247,-3.035507 2.538748,-3.065735c0.258472,-0.011721 0.47989,0.613628 0.47989,0.613628c0,0 0.700654,4.166737 2.252049,6.175341c0.619207,0.803608 2.413845,0.771347 3.073838,0.721633c4.404964,-0.331782 10.190029,0.334777 10.190029,0.334777c0,0 1.879853,-1.349293 2.194161,-1.492777c0.796904,-0.355132 -0.000814,0.497118 1.966676,2.043084c1.078722,0.847609 1.671204,0.601296 2.5226,0.326383c0.343243,-0.113977 0.547859,-0.485988 0.831888,-0.701204c0.363459,-0.274322 7.676927,-5.431356 8.419232,-5.663359c0.742323,-0.232003 0.709939,1.252047 0.587566,1.613021c-1.348601,3.978624 -5.009527,6.715867 -5.009527,6.715867c0,0 -0.282667,0.582291 -0.155483,1.19736c0.115104,0.558423 2.077217,4.662209 1.048619,4.413234c-0.42752,0.047957 -1.481374,-0.459255 -1.481374,-0.459255c0,0 -1.057374,-0.614349 -1.813882,-1.485696c-0.53509,-0.619673 -0.846709,-1.582165 -0.846709,-1.582165c0,0 -0.24319,-0.782421 -0.962468,-1.008471c-1.737493,-0.546073 -3.034803,0.078037 -3.481035,0.616771c-0.382295,0.46066 -0.147418,1.236425 -0.147418,1.236425c0,0 0.540484,0.611871 0.21001,0.643504c-1.433603,0.129045 -2.103287,-0.961087 -3.100084,-1.564509c-0.347294,-0.208487 -0.878669,-0.553875 -1.778208,0.156166c-0.452246,0.35698 -0.780685,2.186364 -1.484098,2.794926c-0.473841,0.409948 -1.231675,-0.0626 -1.231675,-0.0626c0,0 -1.152952,-0.417103 -1.96802,-0.440305c-3.716851,1.912597 -10.467319,3.669157 -10.467319,3.669157c0,0 0.899857,1.111614 1.371682,1.87821c0.234206,0.382253 0.224796,0.711761 0.224796,0.711761c0,0 0.234895,0.523574 -0.254421,0.596378c-0.290095,0.042208 -3.1122,-0.444816 -4.619838,-1.059885c-1.269401,-0.518342 -2.272229,-1.277228 -2.272229,-1.277228c0,0 -4.619396,0.395121 -7.58218,0.521725c-1.725714,0.071049 -6.866475,0.046182 -7.12339,-0.88989z" stroke-opacity="null" stroke-width="1.5" stroke="#000" fill="#9ACEE6"/>
  <path transform="rotate(-179.03221130371094 165.41250610351562,42.9000015258789) " id="svg_25" d="m133.900354,22.288161c-0.330022,0 -0.499653,-0.35151 -0.499653,-0.773034c0,-0.351429 0.084803,-0.692626 0.330022,-0.692626c0.169631,0 0.424989,0.341197 0.509791,0.692626c0.169631,0.511673 0,0.773034 -0.34016,0.773034zm56.413791,20.056735c0.755036,0 0.924642,0.09015 0.499653,0.692544c-0.245219,0.421524 -0.755011,0.772952 -1.00023,0.772952c-0.255332,0 -0.509791,-0.351429 -0.509791,-0.772952c0,-0.431864 0.340186,-0.692544 1.010368,-0.692544zm-52.713402,-24.533906c-0.755011,-0.170558 -0.839839,-1.034231 0,-1.294993c0.424963,-0.080299 0.670208,0.170531 0.670208,0.692626c0,0.43181 -0.245245,0.682748 -0.670208,0.602367zm-9.411376,27.284137c1.010368,-0.250966 1.010368,-0.431347 0.670208,-1.023918c-0.254459,-0.431347 -0.339262,-0.953388 -0.169631,-1.123973c0.084803,-0.261224 0.509791,0 0.755011,0.511728c0.34016,0.692626 0.594594,0.78332 1.264802,0.351429c0.415774,-0.260735 0.755011,-0.431755 0.755011,-0.170531c0,0.170531 0.255358,0 0.58538,-0.351429c0.509817,-0.511728 0.59462,-1.636163 0.084828,-2.238585c-0.41485,-0.511728 -2.52039,-0.341143 -3.105769,0.260735c-0.339262,0.431891 -0.59462,0.341687 -0.924642,-0.431265c-0.509791,-1.285225 -0.509791,-1.46566 0.670182,-1.545959c1.010368,0 1.010368,0 0.169631,-0.522041c-0.424065,-0.250966 -0.839813,-0.772952 -0.839813,-1.11415c0,-0.863619 1.170759,-1.375347 1.680551,-0.772925c0.169631,0.250912 0.499679,0.511728 0.839839,0.511728c0.670208,0 3.869994,-2.920925 3.869994,-3.523347c0,-0.261197 0.330946,-0.431728 0.670208,-0.261197c0.415749,0.090667 1.170785,-0.170531 1.935934,-0.602422c1.085033,-0.692571 1.085033,-0.772952 0.499653,-1.896925c-0.41485,-0.772952 -0.924642,-1.034231 -2.104641,-1.034231c-1.34039,0 -1.680551,0.170612 -2.095401,1.204844c-0.170555,0.692544 -0.680321,1.204299 -1.010368,1.204299c-0.58538,0 -0.755011,-0.77249 -0.169631,-1.204299c0.254434,-0.170612 0.424065,-0.772952 0.424065,-1.375374c0,-0.943592 -0.169631,-1.11415 -1.264802,-0.863156c-1.095171,0.170531 -1.095171,0.09015 -0.839839,-1.204898c0.169631,-0.772925 0.41485,-1.465497 0.585405,-1.545878c0.169631,-0.09015 0.339236,-0.863156 0.339236,-1.636109c0,-1.546041 0.500577,-1.806776 1.426143,-0.692626c0.424039,0.602395 0.679422,0.692626 0.839813,0.170531c0.169631,-0.341143 0.764225,-0.421524 1.689791,-0.250993c1.255588,0.341197 1.34039,0.250993 1.170759,-0.772952c-0.084803,-0.60234 -0.170529,-1.294966 -0.255332,-1.465497c0,-0.260816 -0.41485,-0.602422 -0.915427,-0.863238c-1.010368,-0.431728 -1.264802,-1.465497 -0.34016,-1.465497c0.255358,0 0.500551,-0.170612 0.500551,-0.512272c0,-0.260816 0.509817,-0.431347 1.179999,-0.351483c0.925566,0.090667 1.425219,-0.250857 2.690021,-2.057551c0.925566,-1.295048 1.595748,-1.987619 1.680576,-1.636191c0.084803,0.431347 0.509791,0.682259 0.92554,0.682259c0.670208,0 0.755036,-0.250912 0.509817,-1.374884c-0.085727,-0.773007 -0.509817,-1.71649 -0.765149,-2.148381c-0.755036,-0.953769 -0.755036,-2.067918 0,-1.726857c0.594594,0.341687 2.444776,-0.601878 2.444776,-1.204272c0,-0.261224 0.246143,-0.43181 0.58538,-0.43181c0.340186,0 0.500577,0.522014 0.500577,1.204816c0,0.863156 0.169631,1.204354 0.59462,0.953361c0.330022,-0.180408 0.585405,-0.692626 0.585405,-1.033742c0,-1.034286 2.689995,-2.841007 3.360177,-2.328816c0.255383,0.170667 0.509791,0 0.595569,-0.60234c0.245194,-1.204816 1.764429,-2.148381 2.434612,-1.545959c0.340186,0.250912 0.670234,0.170612 0.75596,-0.09015c0.169605,-0.34166 0.839813,-0.602422 1.594824,-0.682857c0.755011,-0.09015 1.765379,-0.43181 2.190368,-0.783238c1.594824,-1.11415 3.190598,-1.033769 3.86078,0.171129c0.424989,0.863102 0.594594,0.863102 0.594594,0.26068c0,-0.773007 0.330972,-0.863156 2.350784,-0.60234c3.199812,0.34166 3.700389,0.34166 4.880388,-0.090231c0.755011,-0.250966 1.010343,-0.170585 1.010343,0.521959c0,0.431891 0.245245,0.773034 0.585405,0.773034c0.254434,0 0.499653,-0.250993 0.499653,-0.512218c0,-0.692544 1.350554,-1.033742 2.530528,-0.692544c0.915427,0.34166 1.00023,0.431728 0.755011,2.750694c-0.084803,1.385197 0,2.328762 0.160417,2.328762c0.169605,0 0.34016,-0.602422 0.34016,-1.465578c0,-1.455755 0.924642,-2.057687 1.264802,-0.863184c0.084828,0.431374 0.330022,0.260762 0.499653,-0.421497c0.425014,-1.807238 1.350554,-0.863701 1.095171,1.11415c-0.254408,1.636109 -0.254408,1.636109 0.500603,1.033687c0.424963,-0.260762 0.754985,-0.943483 0.754985,-1.374884c0,-0.431837 0.255383,-0.944027 0.594645,-1.124463c0.670157,-0.341061 1.426117,0.953442 1.179974,1.897388c-0.084803,0.431429 -0.084803,0.773007 0.160391,0.773007c0.170555,0 0.340186,-0.250912 0.340186,-0.43181c0,-0.250966 0.415749,-0.341197 0.92554,-0.170531c1.094273,0.260762 1.254664,0.953306 0.330048,1.37483c-0.245219,0.180898 -0.500577,0.602422 -0.500577,0.953905c0,0.602422 0.170529,0.602422 1.095171,0c1.510021,-1.033742 2.180204,-0.953905 2.435587,0.170531c0.169605,0.602422 0.500551,0.863646 0.839813,0.602422c0.34016,-0.090204 1.095171,0.261224 1.680576,0.863156c0.509791,0.51219 1.264802,0.943565 1.604962,0.943565c0.500577,0 0.500577,0.431864 0.330022,1.636626c-0.169605,1.295048 -0.169605,1.465578 0.340186,0.943619c0.670182,-0.853415 0.924642,-0.773088 1.170785,0.431265c0.084803,0.602422 0.679397,1.034231 1.349605,1.294993c0.755011,0.171129 1.170785,0.602395 1.170785,1.114612c0,0.522014 0.254408,1.123973 0.509791,1.465633c0.670208,0.60234 0.499653,2.409061 -0.255383,3.011456c-0.254408,0.180435 -0.585354,0.090231 -0.670182,-0.170531c-0.169605,-0.261279 -0.755011,-0.261279 -1.850207,0c-1.765379,0.601878 -2.095401,0.772952 -1.680551,1.555728c0.255358,0.511728 3.191496,0.341197 4.79556,-0.261224c0.500577,-0.260789 0.670208,0 0.670208,1.204844c0,0.863102 -0.169631,1.545959 -0.424065,1.545959c-0.170555,0 -0.330946,0.260735 -0.330946,0.692544c0,1.034177 0.415774,0.943483 1.510945,-0.260816c0.584456,-0.692544 0.924616,-0.863619 1.34039,-0.431728c0.424065,0.431728 0.509791,0.431728 0.509791,-0.260816c0,-0.422041 -0.170555,-0.772952 -0.424963,-0.772952c-0.160417,0 -0.330972,-0.34166 -0.330972,-0.682857c0,-0.431755 0.246143,-0.772952 0.58538,-0.772952c0.255358,0 0.59462,0.170531 0.59462,0.421524c0,0.261333 0.330946,0.602395 0.755935,0.692626c0.584481,0.261279 0.755011,0.602422 0.670182,1.636163c-0.170529,1.977714 0.169657,2.580191 1.425219,2.239048c0.59462,-0.171129 0.924616,0 0.670208,0.341143c-0.075588,0.170531 0,0.602422 0.169631,0.782721c0.680321,0.512245 0.424963,1.716626 -0.330048,1.716626c-0.92554,0 -1.179999,0.431728 -0.679397,1.204762c0.339236,0.43181 0.594594,0.511728 0.924616,0.170585c0.765149,-0.863156 0.925566,-0.170585 1.010368,3.272816c0,1.726259 0.169631,3.101687 0.339262,3.101687c0.415749,0 0.255358,1.897388 -0.339262,2.67034c-0.330946,0.431347 -0.330946,0.852844 -0.084803,1.204272c0.594594,0.773034 0,3.011619 -0.75596,3.011619c-0.670157,0 -1.934984,1.636109 -1.934984,2.409116c0,0.944082 -1.085033,0 -1.34039,-1.033769c-0.254434,-0.943537 -0.254434,-0.943537 -0.424989,-0.261224c-0.160391,0.783265 0.755935,3.192381 1.520185,3.875102c0.500551,0.522095 -0.424989,1.385197 -1.095197,1.033769c-0.340186,-0.170531 -0.500577,-0.682259 -0.500577,-1.204299c0,-1.465497 -2.104641,-5.159891 -3.700389,-6.545034c-0.849028,-0.682857 -1.604064,-1.45581 -1.604064,-1.716544c0,-0.522041 -2.690919,-2.148381 -4.20094,-2.670395c-0.840763,-0.261224 -1.095197,-0.170558 -1.095197,0.522014c0,0.511728 -0.160391,0.682259 -0.500577,0.511728c-0.755011,-0.341197 -1.095171,0.431891 -0.424963,1.204844c0.92554,0.943537 0.765149,2.067918 -0.245219,1.636109c-0.679422,-0.260762 -0.764251,-0.170612 -0.509791,1.29502c0.084803,0.853333 0.255358,1.977714 0.255358,2.489442c0,0.522041 0.169605,0.863238 0.339236,0.863238c0.246169,0 0.330946,-0.170612 0.160417,-0.431347c-0.084803,-0.261279 0.085752,-0.512218 0.424963,-0.512218c0.255383,0 0.500577,0.341605 0.500577,0.682748c0,0.351483 -0.33092,0.692544 -0.92554,0.602476c-0.499653,0 -0.924642,-0.250993 -0.924642,-0.421578c0,-0.78332 -2.265956,-6.113742 -2.936138,-6.896517c-0.755036,-0.853415 -0.254459,-1.11415 -6.220804,2.931129c-0.924616,0.602422 -1.934984,1.897388 -2.444776,2.841007c-0.415774,0.943483 -1.085957,1.897388 -1.425219,2.067918c-0.34016,0.170612 -1.595748,1.545959 -2.690945,3.011538c-4.710757,6.45434 -3.945608,7.227347 -3.61556,20.408218c1.426117,9.987919 1.426117,9.987919 1.426117,9.987919c-3.361127,0 -3.361127,0 -3.361127,0c-2.774823,0 -2.774823,0 -2.774823,0c0.254434,-9.215483 0.254434,-9.215483 0.254434,-9.215483c0.169605,-0.772435 0.255358,-2.32868 0.340186,-3.191918c0.084803,-0.51219 -2.359999,-2.750776 -2.27517,-3.262449c0,-0.43181 2.529604,0.773034 2.529604,0.341143c0.415749,-6.28381 0,-11.282966 -1.095197,-13.943511c-0.254434,-1.636191 -2.359973,-6.896 -2.689995,-6.896c-0.084828,0 -0.679422,-0.51219 -1.264802,-1.114612c-1.010394,-1.123918 -1.425219,-1.204354 -7.061541,-1.545959c-6.051147,-0.350966 -6.051147,-0.350966 -6.051147,-0.350966c-1.434433,1.204354 -1.434433,1.204354 -1.434433,1.204354c-0.839813,0.783238 -1.680551,1.294993 -1.925796,1.294993c-0.509791,0 -2.615331,1.807157 -3.530758,2.840844c-0.084803,0 -0.169605,-0.090068 -0.169605,-0.170531c-0.084828,0 -0.084828,0 -0.084828,-0.090204c-0.084803,-0.250912 -0.170529,-0.51219 -0.34016,-0.772952c0.509791,-0.43181 0.92554,-0.693034 1.095171,-0.60234c0.254434,0.170531 0.500577,0 0.500577,-0.431891c0,-0.431347 -0.500577,-0.602395 -1.840967,-0.431347c-1.604988,0.260816 -2.020737,0.350966 -2.27517,1.374912c-0.415774,0.522014 -0.500577,1.29502 -0.254434,1.897442c-0.085752,0.772952 -0.085752,1.294966 0,1.294966c0.084803,0 0.169605,-0.170531 0.424065,-0.351429c0,0.090231 0.084803,0.180898 0.170529,0.261224c-0.840737,0.260762 -1.265726,1.033769 -1.179999,1.806721c-0.424963,0.351429 -0.840737,0.522014 -1.350503,0.782776c0,0 0,-0.09015 -0.075614,-0.09015c0.330946,-0.772952 0.500577,-1.636191 0.58538,-2.931157c0.170555,-1.45581 0.084803,-2.409116 -0.169605,-2.409116c-0.169631,0 -0.34016,0.351429 -0.34016,0.863075c0.084777,0.431891 -0.075614,0.863238 -0.414876,0.943619c-0.255358,0.09015 -0.424963,-0.080381 -0.424963,-0.511728c0,-1.034231 -0.330048,-1.034231 -1.085982,-0.090667c-0.339236,0.351429 -1.009444,0.773007 -1.594824,0.953905c-0.765149,0.250912 -1.010368,0.080299 -1.350529,-0.863238c-0.254434,-0.772952 -0.424065,-1.636626 -0.254434,-1.977769c0.084803,-0.43181 0.084803,-0.782776 -0.245219,-0.782776c-0.925566,0 -0.255358,-1.375429 0.839813,-1.636653zm7.231147,-19.795511c-0.509791,-0.09015 -0.925566,-0.341143 -1.095171,-0.692571c-0.084828,-0.51219 -0.169631,-0.51219 -0.169631,0c0,0.351429 -0.34016,0.602422 -0.670208,0.692571c-0.594594,0 -0.594594,0.090204 0.084828,0.431891c0.414825,0.170531 0.839813,0.431265 0.924616,0.431265c0.075588,0 0.500577,-0.260735 0.925566,-0.431265c0.755011,-0.431891 0.755011,-0.431891 0,-0.431891zm66.66498,13.86313c0.160417,0.170612 0.330048,-0.090667 0.330048,-0.522014c0,-0.341605 -0.169631,-0.682803 -0.330048,-0.682803c-0.255332,0 -0.424963,0.170585 -0.424963,0.421524c0,0.261279 0.169631,0.612708 0.424963,0.783293zm-0.594594,0.773007c-0.084803,-0.261279 -0.500577,-0.602395 -0.840737,-0.602395c-0.245219,0 -0.41485,0.341116 -0.245219,0.602395c0.075588,0.260762 0.415749,0.431374 0.755011,0.431374c0.330946,0 0.415749,-0.170612 0.330946,-0.431374zm-0.755011,3.87464c0.254434,0 0.594594,-0.09015 0.594594,-0.170531c0,-0.180898 -0.34016,-0.351429 -0.594594,-0.522041c-0.330946,-0.170585 -0.585405,-0.080381 -0.585405,0.170612c0,0.261224 0.254459,0.521959 0.585405,0.521959zm0.670208,-8.181143c0.339236,-0.170667 0.509766,-0.431864 0.424065,-0.682857c-0.254459,-0.612163 -1.679678,-0.612163 -1.679678,0c0,0.682857 0.499679,0.943619 1.255613,0.682857zm-4.616714,-6.454939c-0.424989,0.261279 -0.679422,0.773007 -0.594645,1.034231c0.424989,0.68234 0.925591,0.511728 1.34963,-0.602422c0.415774,-1.034231 0.246143,-1.204762 -0.754985,-0.43181zm-1.604988,13.260735c2.190342,2.318884 2.27517,2.409116 2.27517,1.636163c0,-0.431347 -0.169631,-0.782776 -0.424989,-0.782776c-0.245194,0 -0.670182,-0.431891 -0.924616,-0.943537c-0.245245,-0.512272 -0.755011,-1.034313 -1.170785,-1.034313c-0.764225,0 -0.764225,0.090694 0.245219,1.124463zm-1.764481,-4.055592c0.508893,0 0.755036,-0.170531 0.42409,-0.250939c-0.254434,-0.170585 -0.670208,-0.170585 -0.924642,0c-0.255383,0.080408 0,0.250939 0.500551,0.250939zm-2.435561,-11.70449c0.254434,0.260816 1.009444,0.601959 1.679627,0.773034c1.180025,0.260735 1.264828,0.260735 0.59462,-0.43181c-0.764225,-0.853415 -2.859626,-1.11415 -2.274246,-0.341225zm-5.126531,-14.284572c-0.254434,0.250912 -0.339236,0.772952 -0.254434,1.114068c0.169631,0.692626 0.670208,0.090231 0.670208,-0.943537c0,-0.522041 -0.084828,-0.602422 -0.415774,-0.170531zm2.52039,18.591157c0.670208,0.431293 0.925566,0.431293 1.265752,-0.171075c0.670182,-0.943592 0.245194,-1.374884 -1.010394,-0.772925c-1.010368,0.421986 -1.010368,0.421986 -0.255358,0.944zm-1.679627,-4.306585c1.264802,-0.943456 1.264802,-0.943456 0.254434,-0.943456c-0.679422,0 -1.179999,0.341061 -1.434433,0.943456c-0.160417,0.601959 -0.330946,0.943619 -0.246143,0.943619c0,0 0.670208,-0.512245 1.426143,-0.943619zm-1.850207,13.953361c0.584456,0.943619 1.59485,0.943619 1.264802,-0.090204c-0.084803,-0.341605 -0.170529,-0.772952 -0.170529,-0.863646c0,-0.080381 -0.339262,-0.080381 -0.755011,0.090694c-0.679422,0.170585 -0.679422,0.431347 -0.339262,0.863156zm-2.606116,-3.533551c0.670182,0.943592 1.010368,1.033742 1.765379,0.341197c0.500577,-0.431347 0.500577,-0.431347 0,-0.511728c-0.254434,0 -0.924642,-0.090694 -1.510021,-0.261279c-0.840737,-0.341143 -0.840737,-0.341143 -0.255358,0.43181zm-0.084803,-9.386041c0.424963,0 0.92554,-1.375347 0.670208,-1.806694c-0.330048,-0.43181 -1.00947,0.260735 -1.00947,1.033742c0,0.431837 0.169631,0.772952 0.339262,0.772952zm-4.115239,5.852463c-0.509791,0.351429 -0.424963,0.431891 0.245245,0.431891c0.424963,0 0.924616,-0.171129 1.095171,-0.431891c0.254408,-0.682721 -0.585405,-0.682721 -1.340416,0zm0.084828,7.578857c0.075588,0.090694 0.330022,-0.090204 0.58538,-0.511728c0.254408,-0.351429 1.00947,-0.783238 1.594824,-0.95385c0.755011,-0.260816 1.095197,-0.682313 1.095197,-1.29502c0,-1.455211 -1.179999,-1.023946 -2.435613,0.863673c-0.509766,0.953388 -0.924616,1.726395 -0.839788,1.896925zm-0.92554,-3.964898c0.754985,-0.943483 0.754985,-1.114612 0.160365,-1.375374c-0.670182,-0.341197 -1.169835,0.431891 -1.169835,1.806721c-0.085727,1.034231 -0.085727,1.034231 1.00947,-0.431347zm-1.34963,-10.158966c0.084803,0.692544 0.254434,0.602395 0.754985,-0.682803c0.594645,-1.374912 0.594645,-1.55581 0.084828,-1.55581c-0.330022,0 -0.670208,0.260816 -0.755011,0.692653c-0.169631,0.341116 -0.169631,1.124435 -0.084803,1.545959zm-0.415774,-7.056844c0,0.350966 0.160391,1.204354 0.330946,1.806721c0.254434,1.204816 0.254434,1.204816 0.509791,0.170585c0.330022,-1.033687 0,-2.579646 -0.509791,-2.579646c-0.246143,0 -0.330946,0.26068 -0.330946,0.60234zm-5.889832,2.840463c-0.415749,0.602422 -0.415749,1.204844 -0.085727,3.011538c0.170555,1.294993 0.595544,2.590014 0.840737,2.841007c0.424989,0.43181 0.509791,0 0.594594,-2.669932c0,-3.262531 -0.424963,-4.29668 -1.349605,-3.182612zm0.755011,9.125279c0.084828,0.170612 0.254434,-0.170585 0.169631,-0.682776c0,-0.522041 -0.084803,-0.602422 -0.254434,-0.260762c-0.075614,0.341143 -0.075614,0.772952 0.084803,0.943537zm3.030181,-8.091048c-0.084803,0.170612 -0.084803,1.375429 0.169631,2.669932c0.255358,2.239048 0.330946,2.329197 0.415774,0.693034c0.084803,-2.670395 -0.084828,-3.965361 -0.585405,-3.362966zm-2.86055,24.28294c0.509791,-1.034231 1.34963,-2.760626 1.93501,-3.794776c0.670182,-1.114231 1.095171,-2.579728 1.264802,-4.045306c0.246143,-2.318966 0.246143,-2.318966 0.246143,-2.318966c-1.010368,1.285197 -1.010368,1.285197 -1.010368,1.285197c-0.500577,0.692626 -0.839839,1.465578 -0.839839,1.726395c0,0.682748 -1.595748,4.989252 -2.096325,5.762259c-0.254434,0.431265 -0.679422,1.385197 -0.755011,2.067918c-0.424989,1.977361 0.330946,1.636163 1.255588,-0.682721zm-5.966345,8.864c0.255358,1.71649 0.255358,1.71649 1.095197,-1.977796c0.500577,-1.987646 1.255588,-5.16966 1.765379,-7.147483c0.670182,-2.499347 0.92554,-4.567265 0.92554,-7.488572c0,-3.794395 -0.085727,-3.874776 -0.755909,-3.442884c-1.519261,1.114122 -2.359999,4.21581 -2.699261,10.238803c-0.160391,3.102286 -0.330946,6.203973 -0.500551,6.886776c-0.084828,0.692571 0,1.987592 0.169605,2.931157zm0.170555,-22.034586c0.330022,0.853388 0.670208,1.545959 0.670208,1.545959c0.084803,0 0.499627,-0.522041 0.839813,-1.204762c0.424963,-0.601932 1.095171,-1.294503 1.34963,-1.545497c1.001128,-0.783238 1.255562,-3.192354 0.415749,-4.828517c-0.670208,-1.465578 -2.52039,-3.102231 -2.860576,-2.580191c-0.169605,0.170585 -0.414825,1.807238 -0.58538,3.704163c-0.339236,2.840925 -0.339236,3.704544 0.170555,4.908844zm-0.509791,-19.715538c0.169631,0.171075 0.339236,0.080381 0.339236,-0.180354c0,-0.34166 -0.169605,-0.682857 -0.339236,-0.853415c-0.255358,-0.180871 -0.415774,-0.090204 -0.415774,0.250993c0,0.260762 0.160417,0.602422 0.415774,0.782776zm-27.234796,23.148599c1.170759,0.090667 1.170759,0.090667 1.170759,0.090667c1.179999,0 2.359999,-1.114612 2.359999,-2.067918c0,-0.602422 -0.084803,-0.602422 -3.530758,1.977252zm0.500577,-2.409143c0,0.261361 0.169631,0.522041 0.424989,0.522041c0.41485,0 1.594824,-1.545959 1.34039,-1.806694c-0.255358,-0.351429 -1.765379,0.772925 -1.765379,1.284653zm0.92554,-5.932762c1.264828,1.716952 1.850207,1.887537 2.52039,0.772925c0.679422,-1.033687 0.084828,-1.726313 -1.935908,-1.977306c-1.679652,-0.261279 -1.679652,-0.261279 -0.584481,1.204381zm-0.92554,-4.828082c0,0.180354 0.594594,0.601878 1.264802,0.953306c3.105795,1.636191 3.700389,1.636191 3.61556,0.080463c0,-0.943619 -1.264802,-3.011592 -1.765379,-3.011592c-0.594594,0 -3.114984,1.636163 -3.114984,1.977823zm4.541126,12.226504c0.924642,0 1.009444,-0.260816 0.254434,-0.68234c-0.34016,-0.090667 -0.670208,0 -0.755011,0.250993c-0.170555,0.26068 0.084803,0.431347 0.500577,0.431347zm0.670208,-20.227348c-0.585405,-0.431864 -1.34134,-0.602395 -1.680576,-0.431864c-0.58538,0.34166 -0.500577,0.431864 0.339236,0.692544c0.415774,0.171129 1.265752,0.341687 1.680576,0.422068c0.500577,0 0.500577,-0.171075 -0.339236,-0.682748zm-0.075588,3.101687c0.499627,0 0.58538,-0.090204 0.245219,-0.350966c-0.245219,-0.080327 -0.585405,-0.080327 -0.755036,0.090231c-0.084803,0.170531 0.169631,0.341197 0.509817,0.260735zm0.499627,1.97785c-1.179974,0 -1.179974,0.080299 -0.499627,0.772925c0.839813,0.772952 1.085033,0.863102 1.425219,0.341143c0.585354,-0.68234 0.169605,-1.114068 -0.925591,-1.114068zm1.680602,-9.727238c-0.340186,-0.43181 -0.424989,0.341197 -0.254459,1.284735c0.084803,0.602422 0.424065,1.124381 0.59462,1.124381c0.330022,0 0.084803,-1.897388 -0.34016,-2.409116zm2.689995,11.363266c-0.169605,0.080463 0.255358,0.602422 0.755935,1.034286c0.509791,0.431347 0.924616,0.601905 0.924616,0.341143c0,-0.60234 -1.425193,-1.726776 -1.680551,-1.375429zm-2.104641,0.602422c-0.755011,0.602476 -0.330022,2.148354 0.764251,2.40917c0.58538,0.170558 1.510945,0.863184 2.096325,1.545905c0.509791,0.692626 0.924616,0.953905 0.924616,0.692626c0,-0.863156 -3.360203,-4.999129 -3.785191,-4.647701zm3.445955,7.147565c-0.500551,-1.385714 -1.085957,-2.068054 -2.181153,-2.499864c-0.839813,-0.341143 -1.680551,-0.521959 -1.934984,-0.431293c-0.255358,0.09015 0.755011,1.204299 2.190368,2.499293c2.689995,2.238585 2.689995,2.238585 1.92577,0.431864zm4.464614,-13.26079c-0.169631,0 -0.340186,0.341197 -0.340186,0.68234c0,0.43181 0.170555,0.692626 0.340186,0.692626c0.245219,0 0.415774,-0.260816 0.415774,-0.692626c0,-0.341143 -0.170555,-0.68234 -0.415774,-0.68234zm-0.764225,7.056844c0,0.60234 1.434433,0.170585 2.019813,-0.602422c0.839839,-1.294966 0.755011,-1.636163 -0.34016,-1.636163c-0.755011,0 -1.679652,1.204871 -1.679652,2.238585zm2.444801,-18.591239c-0.255358,1.11415 -0.424989,2.057687 -0.34016,2.148381c0.255332,0.341197 0.925566,-2.238531 0.925566,-3.272762c0,-0.431347 -0.255383,0.090694 -0.585405,1.124381zm4.370597,17.386395c-0.424989,0 -0.755036,0.171129 -0.755036,0.51219c0,0.260816 0.245219,0.431891 0.499653,0.431891c0.34016,0 0.670208,-0.171075 0.755935,-0.431891c0.169631,-0.341061 -0.085727,-0.51219 -0.500551,-0.51219zm-1.010394,16.182041c0.500577,1.556272 1.255588,3.011538 1.680576,3.362966c0.424989,0.260816 1.264802,1.465633 1.765379,2.670395c0.500577,1.204354 1.010368,2.147918 1.095197,2.147918c0.414825,0 -0.424989,-7.92 -1.010368,-10.329579c-0.509817,-2.067456 -0.670234,-3.964898 -0.585405,-6.976436c0.075588,-2.238531 0,-4.216354 -0.169605,-4.386912c-0.084828,-0.170585 -0.670208,-0.170585 -1.179999,0c-0.925566,0.341143 -1.010368,0.602422 -1.010368,2.49981c0,1.455293 -0.169657,2.238585 -0.585405,2.579646c-1.179974,0.773034 -1.095171,5.159919 0,8.432191zm-2.435561,-11.533851c-0.169631,-1.294993 -0.339236,-1.465578 -1.264802,-1.465578c-1.095197,0 -1.095197,0.090204 -1.010368,1.896925c0,1.114612 0.170529,2.409578 0.255332,3.01151c0.084828,0.602422 0.415774,1.204762 0.755036,1.294993c0.670182,0.431864 1.425193,-2.579646 1.264802,-4.73785zm-1.264802,8.692925c-0.755036,-1.033769 -1.264802,-2.147918 -1.340416,-2.409116c0,-0.341143 -0.424963,-1.204299 -0.924642,-1.977306c-0.509791,-0.772952 -1.095171,-1.726803 -1.350529,-2.068c-0.839813,-1.204762 -0.670208,-0.170531 0.255358,2.499347c0.58538,1.807157 1.59485,3.443347 2.774823,4.818694c2.181128,2.328735 2.435587,1.897007 0.585405,-0.863619zm-1.340416,4.226123c0.915427,0 0.839839,-0.09015 -0.424963,-1.465497c-0.839839,-0.863238 -1.425219,-1.806776 -1.425219,-2.238612c0,-0.341116 -1.095197,-1.555782 -2.359973,-2.669932c-1.255613,-1.124354 -2.435613,-2.238503 -2.605218,-2.580109c-0.170555,-0.431347 -0.255358,-0.431347 -0.255358,0.080381c0,0.522041 -0.41485,0.60234 -1.765379,0.341143c-0.924642,-0.170612 -1.679652,-0.170612 -1.679652,-0.079918c0,0.170585 0.339236,1.204354 0.679422,2.238503c0.585405,1.716571 0.839813,2.068054 2.690021,2.75034c1.170785,0.43181 3.020941,1.465551 4.20094,2.238503c1.095197,0.78332 2.435587,1.385197 2.945378,1.385197zm-13.121877,2.921306c0.34016,0 0.840737,-0.170531 1.179974,-0.431728c0.585405,-0.601959 0.085752,-0.601959 -1.009444,0c-0.500577,0.261197 -0.58538,0.341578 -0.170529,0.431728zm-0.924642,-2.148354c0.839839,-0.350912 3.530758,-0.692571 5.975559,-0.692571c4.615816,-0.080381 5.541356,-0.341061 3.691149,-0.863156c-0.585354,-0.170531 -1.92577,-0.602422 -3.020941,-1.033769c-1.93501,-0.772952 -5.890756,-0.51219 -6.305607,0.351048c-0.085727,0.170993 -0.509791,0.261197 -0.92554,0.170993c-0.839839,-0.261224 -1.680576,0.431401 -1.93501,1.806776c-0.34016,1.114068 0.254434,1.204762 2.52039,0.26068zm-6.721355,1.977823c0.169631,0.692626 1.010368,0.772952 1.680576,0.170531c0.414825,-0.341116 0.414825,-0.511646 0,-1.033687c-0.34016,-0.512272 -0.58538,-0.512272 -1.095171,-0.080381c-0.34016,0.250993 -0.585405,0.68234 -0.585405,0.943537zm-2.690021,6.023075c0.330048,0 0.499679,0.260816 0.330048,0.773007c-0.075614,0.351429 -0.330048,0.692571 -0.500577,0.692571c-0.254434,0 -0.41485,-0.341143 -0.41485,-0.692571c0,-0.421524 0.245219,-0.773007 0.58538,-0.773007z" stroke-opacity="null" stroke-width="1.5" stroke="#000" fill="#0eef4e"/>
  <text style="cursor: move;" xml:space="preserve" text-anchor="start" font-family="Helvetica, Arial, sans-serif" font-size="24" id="svg_26" y="385" x="207.5" stroke-opacity="null" stroke-width="0" stroke="#000" fill="#000000"> </text>
 </g>
</svg>