<svg width="580" height="400" xmlns="http://www.w3.org/2000/svg">
 <!-- Created with Method Draw - http://github.com/duopixel/Method-Draw/ -->

 <g>
  <title>background</title>
  <rect x="-1" y="-1" width="582" height="402" id="canvas_background" fill="#0b6ded"/>
  <g id="canvasGrid" display="none">
   <rect id="svg_2" width="100%" height="100%" x="0" y="0" stroke-width="0" fill="url(#gridpattern)"/>
  </g>
 </g>
 <g>
  <title>Layer 1</title>
  <path fill="#fff" stroke-width="1.5" d="m34.85451,388.48172c-1.32889,-0.34016 -2.7754,0.15705 -4.19513,-0.33839c1.14819,-0.0427 2.87352,-0.00322 2.56883,-1.0211c0.50239,-1.18867 -0.51716,-2.4357 0.33163,-3.4702c-1.32932,-0.75817 -2.7246,-1.65581 -3.43334,-2.71478c-0.14224,0.42722 -0.27333,0.76707 -0.47549,0.03052c-0.11588,-0.36044 -0.04556,0.89099 -0.48863,0.01291c-0.46732,-0.78079 -1.72545,-2.81667 -2.11582,-0.92837c-0.16213,0.97442 -0.67092,0.28303 -0.90346,-0.33533c-0.23628,-1.19072 -1.08971,-2.29381 -1.31324,-3.48221c0.87363,-0.75281 -0.12454,-0.85531 -0.58886,-0.10427c-0.51131,1.19146 -0.94932,2.37068 -0.41593,3.59814c-0.70885,0.34664 -2.07706,-1.61309 -1.44777,-2.36482c0.54595,-0.85056 0.42456,-1.71875 0.51542,-2.29413c0.49917,-0.64907 -0.48569,-1.35441 0.03782,-2.04659c-1.33775,0.87182 -2.53406,1.47484 -2.15827,2.84258c-0.16605,0.3412 0.55755,2.30311 0.09671,1.58067c-0.87007,-1.41031 -0.87073,-2.97223 -0.21597,-4.41129c0.0008,-1.0984 -1.48949,1.89681 -1.37948,0.4287c-0.14104,-1.10722 0.6223,-2.32473 1.34525,-3.20015c-0.82312,-0.58551 -3.48908,-0.17062 -2.22787,-1.41359c1.24119,-0.63174 1.10817,-1.50045 -0.58109,-0.7366c-2.60852,1.14525 -4.7727,2.61662 -7.16399,3.91725c2.2975,-1.76545 4.88757,-3.47383 8.09326,-4.65823c3.10822,-1.17003 7.61522,-1.29099 10.29723,0.38574c0.68218,0.71822 2.26781,1.19434 2.64588,1.84092c-0.27792,0.96913 0.76888,1.44968 0.88125,2.30146c0.66059,0.65726 -0.59598,1.83893 1.28374,1.4983c2.13825,-0.0018 5.06457,-0.285 5.23183,-1.87921c0.85337,-2.29598 1.24623,-4.86113 3.97883,-6.68843c1.5187,-0.53071 0.57539,-0.38947 -0.5344,-0.47689c-0.98112,-0.68256 0.99031,-1.77828 1.96086,-1.90318c-0.16743,-1.61314 1.58619,0.96709 2.0875,-0.2173c0.75221,0.00855 1.11893,1.08739 1.57622,0.20682c1.36372,0.68978 2.80502,1.7332 1.00362,2.69382c2.04938,0.5873 -2.08823,0.20696 -0.32301,1.10675c1.45687,0.84173 0.42704,2.39664 -0.76888,3.07427c-0.04645,0.5095 1.4022,1.24972 1.69347,1.86784c1.50485,1.74144 1.8066,3.81322 1.22983,5.72152c-0.81208,1.7986 -3.83432,2.58128 -5.97124,3.72388c-1.82538,0.89456 -1.18312,2.46356 -2.04738,3.63834c0.08593,0.67836 0.71933,1.45085 1.6193,1.86034c1.30423,0.43569 2.83218,0.71695 3.88673,1.35485c-0.96313,0.30066 -2.92686,-0.91964 -2.94586,0.03511c-1.43076,-1.11102 -3.57863,-0.36551 -5.15125,-1.21994c1.30872,0.14909 3.00989,0.07225 1.57672,-0.86508c-0.56589,-0.79268 -2.27033,-1.06623 -2.31555,-2.02425c-1.60601,0.60272 -2.69883,1.42331 -3.86504,2.2415c-1.936,-0.0723 -2.01947,2.26059 0.07102,2.22598c0.85852,0.13125 4.08061,0.84636 1.54332,0.66164c-0.75628,-0.08078 -1.57674,-0.36371 -1.55361,0.16716c-0.34682,-0.03729 -0.65645,-0.14041 -0.97571,-0.22269l0.00001,0l-0.00001,0.00001z" id="svg_1" transform="rotate(-1.9841233491897583 30.95117187499965,375.3037719726563) " stroke="#000"/>
  <path fill="#ffffff" stroke="#000" stroke-width="1.5" stroke-opacity="null" d="m479.02251,83.31381c0,-2.28542 0,-4.57086 0,-6.85628c21.71429,0 43.42859,0 65.14288,0c0,4.57085 0,9.14171 0,13.71256c-21.71429,0 -43.42859,0 -65.14288,0c0,-2.28543 0,-4.57085 0,-6.85628l0,0zm67.03857,-0.11427c0,-2.32352 0,-4.64704 0,-6.97055c1.14891,0 2.29781,0 3.44671,0c0,4.64703 0,9.29407 0,13.9411c-1.1489,0 -2.2978,0 -3.44671,0c0,-2.32352 0,-4.64703 0,-6.97055zm5.51474,0c0,-2.32352 0,-4.64704 0,-6.97055c1.1489,0 2.29781,0 3.44671,0c0,4.64703 0,9.29407 0,13.9411c-1.1489,0 -2.29781,0 -3.44671,0c0,-2.32352 0,-4.64703 0,-6.97055zm-5.51474,-12.98546c0.59423,-4.20939 -1.18485,-9.25072 -4.8183,-9.1018c-4.21004,-0.30886 -8.48515,-0.05569 -12.66957,-0.41555c-4.05942,-1.84146 -6.28321,-7.73457 -5.70943,-13.21838c-0.66397,-1.58326 -3.50686,-1.13045 -4.67559,-2.86573c-5.69675,-4.32154 -6.46244,-15.90987 -1.69197,-21.76324c1.67109,-2.28153 4.87111,-4.15322 6.98889,-3.57248c0,1.44512 0,2.89024 0,4.33535c-4.37736,0.0648 -7.70266,6.32948 -6.4203,11.81851c1.00249,5.50788 5.46867,7.16053 9.19726,7.23763c2.38253,2.55023 -1.46249,6.94739 0.6081,10.28183c1.40174,4.52695 5.55708,3.05011 8.45418,3.40826c4.16214,0.33234 9.23567,-0.97433 12.25611,3.86762c2.58984,3.74891 1.79448,9.0689 1.92733,13.71746c-1.1489,0 -2.2978,0 -3.44672,0c0,-1.24316 0,-2.48632 0,-3.72948l0,0l0.00001,0zm5.46798,-1.69841c0.27136,-5.86411 -1.00466,-12.31291 -4.80062,-15.84456c-3.62919,-3.65892 -8.33345,-2.53456 -12.58503,-2.72455c-2.6623,-3.13218 1.70817,-6.67139 1.23844,-10.44274c0.29661,-4.94104 -2.2594,-9.75996 -5.94857,-10.82126c-2.10759,0.16521 -2.91979,-0.57906 -2.50146,-3.22645c-0.65473,-3.6053 3.31447,-1.04209 4.62826,-0.72601c4.79618,2.28209 7.97746,9.14793 7.21619,15.87217c-0.1238,2.36874 -1.85674,5.74575 1.21636,4.80997c5.97422,-0.41783 11.68621,4.7294 13.79864,12.11041c1.55427,5.21929 1.16025,10.92515 1.23126,16.4209c-1.13461,0 -2.26922,0 -3.40384,0c-0.02987,-1.80928 -0.05976,-3.61864 -0.08963,-5.42788l-0.00001,0l0.00001,0z" id="svg_8"/>
  <path fill="#f90707" stroke-width="1.5" stroke-opacity="null" d="m455.33251,59.45489l0,0c0,-31.48008 27.98224,-56.99989 62.49996,-56.99989l0,0c16.57625,0 32.47354,6.00535 44.1942,16.69494c11.72113,10.6896 18.30589,25.18783 18.30589,40.30495l0,0c0,31.48047 -27.98205,57.00011 -62.50009,57.00011l0,0c-34.51772,0 -62.49996,-25.51964 -62.49996,-57.00011l0,0zm100.92331,25.49892l0,0c13.76044,-17.24686 11.71498,-41.06081 -4.82244,-56.14274c-16.53744,-15.08205 -42.64922,-16.94752 -61.55976,-4.39786l66.38221,60.54059l-0.00001,0.00001zm-76.84633,-50.99731c-13.76054,17.24676 -11.71512,41.06071 4.82221,56.14243c16.53729,15.08214 42.64908,16.94759 61.55962,4.39807l-66.38183,-60.5405l0,0z" id="svg_9" stroke="#000"/>
  <path fill="#CFCA6D" stroke-width="1.5" stroke-opacity="null" d="m224.87476,270.37954c0.38212,-3.95053 1.27789,-8.03217 3.27722,-11.42213c1.91059,-2.22624 4.99432,-2.15967 7.56975,-2.9213c-3.60852,-0.94258 -6.97692,-2.61152 -10.28193,-4.37737c-5.40967,-2.28721 -10.91615,1.00831 -15.79234,3.32031c-3.62048,1.68512 -7.2018,3.67311 -11.10029,4.50755c-2.55737,-1.73079 -0.42154,-6.64108 1.37679,-8.71435c2.27691,-2.86324 5.64728,-4.34247 8.11571,-6.95706c1.08591,-3.69304 -3.91754,-4.60162 -6.16541,-6.05268c-3.48583,-1.53738 -6.44763,-4.05543 -9.09765,-6.86687c6.15421,-0.34932 11.59816,3.37318 17.15122,5.63334c3.00356,1.05908 5.8364,2.54866 8.64477,4.02211c1.28759,-0.00633 5.65684,0.92477 5.22139,-0.50539c-3.27512,-0.14146 -2.94684,-4.26848 -0.74284,-5.90471c3.23944,-2.48314 7.18866,-3.94911 9.88551,-7.23822c1.18314,-0.92516 1.80576,-3.18815 2.80569,-3.9022c4.31166,3.28245 6.83429,8.46032 9.21315,13.37052c3.87364,0.85252 7.78575,1.544 11.73399,1.7527c3.85566,1.71723 7.14778,4.71007 10.16662,7.74943c2.2876,1.6811 2.89725,6.25552 -0.21232,7.17322c-7.6719,4.02524 -16.2383,5.25574 -24.68659,5.64257c-1.19026,-0.08175 -2.22665,0.04551 -2.23462,1.56982c-0.74413,2.17093 -1.04832,4.69371 -2.44919,6.46133c-1.54603,-0.38516 -0.08138,-4.82133 -1.66917,-2.71357c-3.12316,3.30243 -6.8796,5.77914 -10.72946,7.99398c0,-0.54034 -0.00001,-1.08072 0,-1.62103l0,0z" id="svg_12" stroke="#000"/>
  <path fill="#CFCA6D" stroke-width="1.5" stroke-opacity="null" d="m410.87476,315.37954c0.38212,-3.95053 1.27789,-8.03217 3.27722,-11.42213c1.91059,-2.22624 4.99432,-2.15967 7.56975,-2.9213c-3.60852,-0.94258 -6.97692,-2.61152 -10.28193,-4.37737c-5.40967,-2.28721 -10.91615,1.00831 -15.79234,3.32031c-3.62048,1.68512 -7.2018,3.67311 -11.10029,4.50755c-2.55737,-1.73079 -0.42154,-6.64108 1.37679,-8.71435c2.27691,-2.86324 5.64728,-4.34247 8.11571,-6.95706c1.08591,-3.69304 -3.91754,-4.60162 -6.16541,-6.05268c-3.48583,-1.53738 -6.44763,-4.05543 -9.09765,-6.86687c6.15421,-0.34932 11.59816,3.37318 17.15122,5.63334c3.00356,1.05908 5.8364,2.54866 8.64477,4.02211c1.28759,-0.00633 5.65684,0.92477 5.22139,-0.50539c-3.27512,-0.14146 -2.94684,-4.26848 -0.74284,-5.90471c3.23944,-2.48314 7.18866,-3.94911 9.88551,-7.23822c1.18314,-0.92516 1.80576,-3.18815 2.80569,-3.9022c4.31166,3.28245 6.83429,8.46032 9.21315,13.37052c3.87364,0.85252 7.78575,1.544 11.73399,1.7527c3.85566,1.71723 7.14778,4.71007 10.16662,7.74943c2.2876,1.6811 2.89725,6.25552 -0.21232,7.17322c-7.6719,4.02524 -16.2383,5.25574 -24.68659,5.64257c-1.19026,-0.08175 -2.22665,0.04551 -2.23462,1.56982c-0.74413,2.17093 -1.04832,4.69371 -2.44919,6.46133c-1.54603,-0.38516 -0.08138,-4.82133 -1.66917,-2.71357c-3.12316,3.30243 -6.8796,5.77914 -10.72946,7.99398c0,-0.54034 -0.00001,-1.08072 0,-1.62103l0,0z" id="svg_13" stroke="#000"/>
  <path fill="#edf41a" stroke-width="1.5" stroke-opacity="null" d="m327.87476,159.37954c0.38212,-3.95053 1.27789,-8.03217 3.27722,-11.42213c1.91059,-2.22624 4.99432,-2.15967 7.56975,-2.9213c-3.60852,-0.94258 -6.97692,-2.61152 -10.28193,-4.37737c-5.40967,-2.28721 -10.91615,1.00831 -15.79234,3.32031c-3.62048,1.68512 -7.2018,3.67311 -11.10029,4.50755c-2.55737,-1.73079 -0.42154,-6.64108 1.37679,-8.71435c2.27691,-2.86324 5.64728,-4.34247 8.11571,-6.95706c1.08591,-3.69304 -3.91754,-4.60162 -6.16541,-6.05268c-3.48583,-1.53738 -6.44763,-4.05543 -9.09765,-6.86687c6.15421,-0.34932 11.59816,3.37318 17.15122,5.63334c3.00356,1.05908 5.8364,2.54866 8.64477,4.02211c1.28759,-0.00633 5.65684,0.92477 5.22139,-0.50539c-3.27512,-0.14146 -2.94684,-4.26848 -0.74284,-5.90471c3.23944,-2.48314 7.18866,-3.94911 9.88551,-7.23822c1.18314,-0.92516 1.80576,-3.18815 2.80569,-3.9022c4.31166,3.28245 6.83429,8.46032 9.21315,13.37052c3.87364,0.85252 7.78575,1.544 11.73399,1.7527c3.85566,1.71723 7.14778,4.71007 10.16662,7.74943c2.2876,1.6811 2.89725,6.25552 -0.21232,7.17322c-7.6719,4.02524 -16.2383,5.25574 -24.68659,5.64257c-1.19026,-0.08175 -2.22665,0.04551 -2.23462,1.56982c-0.74413,2.17093 -1.04832,4.69371 -2.44919,6.46133c-1.54603,-0.38516 -0.08138,-4.82133 -1.66917,-2.71357c-3.12316,3.30243 -6.8796,5.77914 -10.72946,7.99398c0,-0.54034 -0.00001,-1.08072 0,-1.62103l0,0z" id="svg_15" stroke="#000"/>
  <path fill="#CFCA6D" stroke-width="1.5" stroke-opacity="null" d="m531.87476,194.37954c0.38212,-3.95053 1.27789,-8.03217 3.27722,-11.42213c1.91059,-2.22624 4.99432,-2.15967 7.56975,-2.9213c-3.60852,-0.94258 -6.97692,-2.61152 -10.28193,-4.37737c-5.40967,-2.28721 -10.91615,1.00831 -15.79234,3.32031c-3.62048,1.68512 -7.2018,3.67311 -11.10029,4.50755c-2.55737,-1.73079 -0.42154,-6.64108 1.37679,-8.71435c2.27691,-2.86324 5.64728,-4.34247 8.11571,-6.95706c1.08591,-3.69304 -3.91754,-4.60162 -6.16541,-6.05268c-3.48583,-1.53738 -6.44763,-4.05543 -9.09765,-6.86687c6.15421,-0.34932 11.59816,3.37318 17.15122,5.63334c3.00356,1.05908 5.8364,2.54866 8.64477,4.02211c1.28759,-0.00633 5.65684,0.92477 5.22139,-0.50539c-3.27512,-0.14146 -2.94684,-4.26848 -0.74284,-5.90471c3.23944,-2.48314 7.18866,-3.94911 9.88551,-7.23822c1.18314,-0.92516 1.80576,-3.18815 2.80569,-3.9022c4.31166,3.28245 6.83429,8.46032 9.21315,13.37052c3.87364,0.85252 7.78575,1.544 11.73399,1.7527c3.85566,1.71723 7.14778,4.71007 10.16662,7.74943c2.2876,1.6811 2.89725,6.25552 -0.21232,7.17322c-7.6719,4.02524 -16.2383,5.25574 -24.68659,5.64257c-1.19026,-0.08175 -2.22665,0.04551 -2.23462,1.56982c-0.74413,2.17093 -1.04832,4.69371 -2.44919,6.46133c-1.54603,-0.38516 -0.08138,-4.82133 -1.66917,-2.71357c-3.12316,3.30243 -6.8796,5.77914 -10.72946,7.99398c0,-0.54034 -0.00001,-1.08072 0,-1.62103l0,0z" id="svg_16" stroke="#000"/>
  <path fill="#57f43f" stroke-width="1.5" stroke-opacity="null" d="m481.87476,288.37954c0.38212,-3.95053 1.27789,-8.03217 3.27722,-11.42213c1.91059,-2.22624 4.99432,-2.15967 7.56975,-2.9213c-3.60852,-0.94258 -6.97692,-2.61152 -10.28193,-4.37737c-5.40967,-2.28721 -10.91615,1.00831 -15.79234,3.32031c-3.62048,1.68512 -7.2018,3.67311 -11.10029,4.50755c-2.55737,-1.73079 -0.42154,-6.64108 1.37679,-8.71435c2.27691,-2.86324 5.64728,-4.34247 8.11571,-6.95706c1.08591,-3.69304 -3.91754,-4.60162 -6.16541,-6.05268c-3.48583,-1.53738 -6.44763,-4.05543 -9.09765,-6.86687c6.15421,-0.34932 11.59816,3.37318 17.15122,5.63334c3.00356,1.05908 5.8364,2.54866 8.64477,4.02211c1.28759,-0.00633 5.65684,0.92477 5.22139,-0.50539c-3.27512,-0.14146 -2.94684,-4.26848 -0.74284,-5.90471c3.23944,-2.48314 7.18866,-3.94911 9.88551,-7.23822c1.18314,-0.92516 1.80576,-3.18815 2.80569,-3.9022c4.31166,3.28245 6.83429,8.46032 9.21315,13.37052c3.87364,0.85252 7.78575,1.544 11.73399,1.7527c3.85566,1.71723 7.14778,4.71007 10.16662,7.74943c2.2876,1.6811 2.89725,6.25552 -0.21232,7.17322c-7.6719,4.02524 -16.2383,5.25574 -24.68659,5.64257c-1.19026,-0.08175 -2.22665,0.04551 -2.23462,1.56982c-0.74413,2.17093 -1.04832,4.69371 -2.44919,6.46133c-1.54603,-0.38516 -0.08138,-4.82133 -1.66917,-2.71357c-3.12316,3.30243 -6.8796,5.77914 -10.72946,7.99398c0,-0.54034 -0.00001,-1.08072 0,-1.62103l0,0z" id="svg_17" stroke="#000"/>
  <path fill="#CFCA6D" stroke-width="1.5" stroke-opacity="null" d="m262.87476,192.37954c0.38212,-3.95053 1.27789,-8.03217 3.27722,-11.42213c1.91059,-2.22624 4.99432,-2.15967 7.56975,-2.9213c-3.60852,-0.94258 -6.97692,-2.61152 -10.28193,-4.37737c-5.40967,-2.28721 -10.91615,1.00831 -15.79234,3.32031c-3.62048,1.68512 -7.2018,3.67311 -11.10029,4.50755c-2.55737,-1.73079 -0.42154,-6.64108 1.37679,-8.71435c2.27691,-2.86324 5.64728,-4.34247 8.11571,-6.95706c1.08591,-3.69304 -3.91754,-4.60162 -6.16541,-6.05268c-3.48583,-1.53738 -6.44763,-4.05543 -9.09765,-6.86687c6.15421,-0.34932 11.59816,3.37318 17.15122,5.63334c3.00356,1.05908 5.8364,2.54866 8.64477,4.02211c1.28759,-0.00633 5.65684,0.92477 5.22139,-0.50539c-3.27512,-0.14146 -2.94684,-4.26848 -0.74284,-5.90471c3.23944,-2.48314 7.18866,-3.94911 9.88551,-7.23822c1.18314,-0.92516 1.80576,-3.18815 2.80569,-3.9022c4.31166,3.28245 6.83429,8.46032 9.21315,13.37052c3.87364,0.85252 7.78575,1.544 11.73399,1.7527c3.85566,1.71723 7.14778,4.71007 10.16662,7.74943c2.2876,1.6811 2.89725,6.25552 -0.21232,7.17322c-7.6719,4.02524 -16.2383,5.25574 -24.68659,5.64257c-1.19026,-0.08175 -2.22665,0.04551 -2.23462,1.56982c-0.74413,2.17093 -1.04832,4.69371 -2.44919,6.46133c-1.54603,-0.38516 -0.08138,-4.82133 -1.66917,-2.71357c-3.12316,3.30243 -6.8796,5.77914 -10.72946,7.99398c0,-0.54034 -0.00001,-1.08072 0,-1.62103l0,0z" id="svg_18" stroke="#000"/>
  <path fill="#ff140c" stroke-width="1.5" stroke-opacity="null" d="m320.87476,275.37954c0.38212,-3.95053 1.27789,-8.03217 3.27722,-11.42213c1.91059,-2.22624 4.99432,-2.15967 7.56975,-2.9213c-3.60852,-0.94258 -6.97692,-2.61152 -10.28193,-4.37737c-5.40967,-2.28721 -10.91615,1.00831 -15.79234,3.32031c-3.62048,1.68512 -7.2018,3.67311 -11.10029,4.50755c-2.55737,-1.73079 -0.42154,-6.64108 1.37679,-8.71435c2.27691,-2.86324 5.64728,-4.34247 8.11571,-6.95706c1.08591,-3.69304 -3.91754,-4.60162 -6.16541,-6.05268c-3.48583,-1.53738 -6.44763,-4.05543 -9.09765,-6.86687c6.15421,-0.34932 11.59816,3.37318 17.15122,5.63334c3.00356,1.05908 5.8364,2.54866 8.64477,4.02211c1.28759,-0.00633 5.65684,0.92477 5.22139,-0.50539c-3.27512,-0.14146 -2.94684,-4.26848 -0.74284,-5.90471c3.23944,-2.48314 7.18866,-3.94911 9.88551,-7.23822c1.18314,-0.92516 1.80576,-3.18815 2.80569,-3.9022c4.31166,3.28245 6.83429,8.46032 9.21315,13.37052c3.87364,0.85252 7.78575,1.544 11.73399,1.7527c3.85566,1.71723 7.14778,4.71007 10.16662,7.74943c2.2876,1.6811 2.89725,6.25552 -0.21232,7.17322c-7.6719,4.02524 -16.2383,5.25574 -24.68659,5.64257c-1.19026,-0.08175 -2.22665,0.04551 -2.23462,1.56982c-0.74413,2.17093 -1.04832,4.69371 -2.44919,6.46133c-1.54603,-0.38516 -0.08138,-4.82133 -1.66917,-2.71357c-3.12316,3.30243 -6.8796,5.77914 -10.72946,7.99398c0,-0.54034 -0.00001,-1.08072 0,-1.62103l0,0z" id="svg_19" stroke="#000"/>
  <path fill="#CFCA6D" stroke-width="1.5" stroke-opacity="null" d="m157.87476,176.37954c0.38212,-3.95053 1.27789,-8.03217 3.27722,-11.42213c1.91059,-2.22624 4.99432,-2.15967 7.56975,-2.9213c-3.60852,-0.94258 -6.97692,-2.61152 -10.28193,-4.37737c-5.40967,-2.28721 -10.91615,1.00831 -15.79234,3.32031c-3.62048,1.68512 -7.2018,3.67311 -11.10029,4.50755c-2.55737,-1.73079 -0.42154,-6.64108 1.37679,-8.71435c2.27691,-2.86324 5.64728,-4.34247 8.11571,-6.95706c1.08591,-3.69304 -3.91754,-4.60162 -6.16541,-6.05268c-3.48583,-1.53738 -6.44763,-4.05543 -9.09765,-6.86687c6.15421,-0.34932 11.59816,3.37318 17.15122,5.63334c3.00356,1.05908 5.8364,2.54866 8.64477,4.02211c1.28759,-0.00633 5.65684,0.92477 5.22139,-0.50539c-3.27512,-0.14146 -2.94684,-4.26848 -0.74284,-5.90471c3.23944,-2.48314 7.18866,-3.94911 9.88551,-7.23822c1.18314,-0.92516 1.80576,-3.18815 2.80569,-3.9022c4.31166,3.28245 6.83429,8.46032 9.21315,13.37052c3.87364,0.85252 7.78575,1.544 11.73399,1.7527c3.85566,1.71723 7.14778,4.71007 10.16662,7.74943c2.2876,1.6811 2.89725,6.25552 -0.21232,7.17322c-7.6719,4.02524 -16.2383,5.25574 -24.68659,5.64257c-1.19026,-0.08175 -2.22665,0.04551 -2.23462,1.56982c-0.74413,2.17093 -1.04832,4.69371 -2.44919,6.46133c-1.54603,-0.38516 -0.08138,-4.82133 -1.66917,-2.71357c-3.12316,3.30243 -6.8796,5.77914 -10.72946,7.99398c0,-0.54034 -0.00001,-1.08072 0,-1.62103l0,0z" id="svg_20" stroke="#000"/>
  <path fill="#CFCA6D" stroke-width="1.5" stroke-opacity="null" d="m398.87476,199.37954c0.38212,-3.95053 1.27789,-8.03217 3.27722,-11.42213c1.91059,-2.22624 4.99432,-2.15967 7.56975,-2.9213c-3.60852,-0.94258 -6.97692,-2.61152 -10.28193,-4.37737c-5.40967,-2.28721 -10.91615,1.00831 -15.79234,3.32031c-3.62048,1.68512 -7.2018,3.67311 -11.10029,4.50755c-2.55737,-1.73079 -0.42154,-6.64108 1.37679,-8.71435c2.27691,-2.86324 5.64728,-4.34247 8.11571,-6.95706c1.08591,-3.69304 -3.91754,-4.60162 -6.16541,-6.05268c-3.48583,-1.53738 -6.44763,-4.05543 -9.09765,-6.86687c6.15421,-0.34932 11.59816,3.37318 17.15122,5.63334c3.00356,1.05908 5.8364,2.54866 8.64477,4.02211c1.28759,-0.00633 5.65684,0.92477 5.22139,-0.50539c-3.27512,-0.14146 -2.94684,-4.26848 -0.74284,-5.90471c3.23944,-2.48314 7.18866,-3.94911 9.88551,-7.23822c1.18314,-0.92516 1.80576,-3.18815 2.80569,-3.9022c4.31166,3.28245 6.83429,8.46032 9.21315,13.37052c3.87364,0.85252 7.78575,1.544 11.73399,1.7527c3.85566,1.71723 7.14778,4.71007 10.16662,7.74943c2.2876,1.6811 2.89725,6.25552 -0.21232,7.17322c-7.6719,4.02524 -16.2383,5.25574 -24.68659,5.64257c-1.19026,-0.08175 -2.22665,0.04551 -2.23462,1.56982c-0.74413,2.17093 -1.04832,4.69371 -2.44919,6.46133c-1.54603,-0.38516 -0.08138,-4.82133 -1.66917,-2.71357c-3.12316,3.30243 -6.8796,5.77914 -10.72946,7.99398c0,-0.54034 -0.00001,-1.08072 0,-1.62103l0,0z" id="svg_21" stroke="#000"/>
  <path fill="#CFCA6D" stroke="#000" stroke-width="1.5" stroke-opacity="null" d="m72.00358,320.03826c-2.93307,-4.17416 -7.49412,-4.65016 -8.59087,-10.59152c-0.85963,-3.23162 -8.96355,-7.56586 -4.16726,-1.76555c3.70358,3.49522 8.10367,16.38725 -1.00793,12.314c-6.93006,-2.64632 -7.22722,-10.8179 -9.08481,-16.93567c-6.04073,-4.36075 1.56179,-13.58125 -4.94236,-19.16852c-5.52018,-5.83245 -1.67572,-16.75577 -9.56361,-20.89129c-3.95919,-1.67199 -5.67291,9.87231 -6.33953,1.4269c-2.16907,-8.54169 -9.82965,4.15219 -14.93794,2.80644c-4.12209,-0.37286 6.8952,-3.35459 1.63769,-4.15701c-3.09101,1.76063 -5.95095,4.80485 -6.43997,-0.23424c-3.71831,-2.29776 -11.51567,-5.96718 -11.31312,-9.61738c3.22897,-1.05543 14.12959,1.9985 12.24056,-2.24485c-3.24147,-1.27997 -3.8303,-4.77884 0.13986,-2.43064c7.82408,0.25538 16.99613,-2.99425 23.50626,3.22102c3.39571,2.17399 6.73449,9.97098 8.55238,2.39376c5.86002,-7.35409 17.68459,-7.97701 21.29703,-17.49872c0.87416,-4.60672 -2.68478,-7.23499 -5.7082,-8.16811c-0.58821,-1.51394 -1.58953,-7.94154 -4.0897,-4.69797c0.11395,-2.83889 2.45924,-9.62768 -2.73566,-6.62228c-0.5269,-6.04666 4.44099,-12.07924 -2.13086,-16.48249c6.15747,1.18851 4.94324,-6.11554 3.60209,-7.27393c3.6501,-0.53929 7.93366,-3.95693 5.92112,-8.19081c3.96391,7.48764 4.10135,-9.0839 7.36482,-1.94107c6.00642,1.02458 -1.86598,-5.58355 3.65846,-4.10859c3.15452,0.11231 2.45391,-3.59636 5.28775,-0.7973c3.75054,-2.12929 -2.87516,-8.56434 3.18049,-4.09319c2.03569,1.84012 8.51675,6.65967 7.3539,0.29985c5.75421,6.38671 10.28248,-5.93217 15.06401,-8.48329c1.8966,-2.36091 6.02093,-4.85949 2.21722,-0.35277c-2.52517,5.74467 -11.09222,11.95919 -8.78742,17.66736c-2.08621,1.97619 4.20923,4.45992 -0.8022,3.71176c-2.96892,3.33457 3.98035,9.57334 4.53494,14.82143c-1.59181,3.59588 -7.65304,7.67815 -10.10496,7.54913c0.89615,-4.6297 -1.04659,-10.66398 -6.72096,-8.04708c3.17867,6.05164 7.47619,11.83287 10.16874,18.41392c2.63177,6.46949 6.89874,13.94044 12.51253,5.6142c3.57807,-5.30679 13.79972,-5.22997 10.99192,3.38829c-1.43536,8.46287 2.40753,19.63216 -4.9765,25.46168c-4.45444,8.93111 -9.3928,-3.32078 -5.89319,-7.95577c-0.89173,-1.32454 -1.58159,-2.25953 1.02786,-4.07008c-0.53881,-1.35811 7.50955,-6.46765 3.45321,-9.60295c-4.61343,5.44322 -11.36394,11.74378 -9.4879,19.83506c1.52262,5.42213 -11.03519,14.71789 -10.03099,5.71935c0.22493,-3.49714 5.02356,-10.27498 3.91898,-11.14817c-3.50344,6.83975 -8.48725,13.4108 -16.0183,15.44153c-6.26435,0.38625 -9.54587,5.63434 -6.57105,11.45714c0.56852,8.25118 -3.61747,15.7189 -4.58119,23.75258c1.79144,8.52078 12.69817,10.24261 14.1786,18.93446c2.54383,5.83744 -3.8193,4.97476 -6.78395,3.34137l0.00001,0l0,0.00001zm-15.5103,-25.42023c-0.91823,-3.85165 -2.80786,10.0124 -0.47854,2.65392l0.3487,-1.30003l0.12984,-1.35389l0,0z" id="svg_22" transform="rotate(2 55.74999999999968,242.24999999999994) "/>
  <path fill="#000000" stroke="#000" stroke-width="1.5" stroke-opacity="null" d="m37.62488,16.54767c0,0 1.03772,0.4027 1.1415,0.70472c0.10375,0.302 4.87731,-0.90604 5.91503,-1.61075c1.03772,-0.70471 3.42449,-0.62662 3.42449,-1.91278c0,-0.40269 -0.47345,-1.44717 0.41509,-1.1074c0.1728,0.0661 0.20757,0.60405 0.20757,0.60405c0,0 -0.18159,-0.49709 -0.44753,-0.35866c-0.12985,0.06761 0.18831,0.90089 0.34374,1.16403c0,0 8.6873,-1.30742 10.58481,-0.80537c0.76101,0.20132 3.32075,0.50335 3.25155,1.57718c0,0 -3.52811,1.17336 -4.08173,5.46988c-0.06916,0.5369 -4.52563,-0.68354 -7.47162,4.73158c-0.65723,1.20805 -0.83019,0.77179 -1.03774,0.70471c-0.20755,-0.06712 -4.35846,-2.58395 -7.78294,2.21476c0,0 0.17295,-0.03354 0.20754,0.10068c0.03459,0.13424 1.69496,-0.36912 1.76415,0.50339c0,0 -0.77365,-0.34041 -0.60069,-0.0048c0.17294,0.33556 0.08522,0.72032 -0.02194,0.50812c-0.02053,-0.04064 -0.44969,-0.40268 -0.31134,-0.10064c0.13836,0.302 -0.66473,0.99495 -0.7072,0.89332c-0.16902,-0.40447 0.39589,-0.85978 -0.64183,-1.296c-1.03774,-0.43625 -3.90878,0.60402 -5.39618,3.82553c0,0 -0.10377,0.16778 -0.31132,-0.10068c-0.20755,-0.26846 -1.66037,-3.8591 -4.66978,-4.02688c0,0 -0.13836,0.50335 -0.62262,0.60403c-0.48428,0.10068 -0.38049,1.64429 -0.62265,1.10739c-0.24214,-0.53691 -0.1921,0.1038 -0.20754,0c-0.05611,-0.37761 0.17746,-0.96703 -0.51887,-0.70471c-0.09122,0.03435 -0.13837,0.57049 -0.31131,0.30203c-0.17296,-0.26846 0.21343,-0.7492 0.45555,-0.95054c0.24214,-0.20134 -0.80689,-0.22358 -0.35177,-0.45888c0.46065,-0.23817 1.76412,0.53693 1.24527,-0.302c-0.51887,-0.83895 -3.50152,-4.75727 -7.78295,-2.11412c-0.76101,0.4698 -0.51887,-0.10069 -0.93396,-0.60407c-0.41508,-0.50334 -3.32372,-5.29789 -7.26408,-4.73157c-0.93397,0.13425 -0.51887,-0.7047 -0.83017,-1.00671c-0.31134,-0.30202 -2.19079,-5.58451 -4.04714,-5.13427c-0.41509,0.10064 -0.11732,-1.72489 3.42449,-1.51009c0.55346,0.03354 0.20755,-0.40269 0.83019,-0.30203c0.62263,0.10069 8.3018,1.14096 9.13198,1.40942c0.83019,0.26846 1.76414,0.52371 1.76414,-1.10739c0,-0.03147 -0.13621,-0.11325 -0.4151,0.10066c-0.12322,-0.10696 0.89938,-0.67115 0.72642,0.4027c-0.17296,1.07383 -0.55101,0.78518 0.10377,1.10737c0.92715,0.4562 1.66173,1.24752 3.11317,1.30876c0.7956,0.03356 4.80756,1.94422 5.7075,1.71142c0.51887,-0.13423 1.21068,-0.43625 0.93395,-0.60405c-0.27671,-0.16776 -1.21068,-1.24161 -1.1415,-1.81208c0.06919,-0.57047 0.27673,-1.00671 0,-1.20807c-0.27673,-0.20134 0.31132,-0.77181 0.83019,-0.10068c0.51886,0.67116 0.51886,1.17451 0.93395,1.20807c0.4151,0.03358 1.17611,-0.16776 1.45282,0c0,0 1.2107,-1.67785 1.8679,-1.40942c0.65723,0.26847 0.13836,0.63759 0.20755,0.90605c0.06918,0.26846 -0.69181,2.28193 -1.4528,2.2148l-0.00001,-0.00001z" id="svg_23"/>
  <path fill="#9ACEE6" stroke="#000" stroke-width="1.5" stroke-opacity="null" d="m391.55081,50.53718c-0.18705,-0.68157 2.83894,-2.30013 5.04388,-3.68217c1.7506,-1.09289 3.66209,-2.41763 5.48269,-3.58646c1.52179,-0.97693 4.88005,-2.62602 5.25857,-3.69413c0.44224,-1.24787 1.23304,-3.54747 2.08244,-5.26351c0.64614,-1.31134 1.87225,-3.03551 2.53875,-3.06574c0.25847,-0.01172 0.47989,0.61363 0.47989,0.61363c0,0 0.70065,4.16674 2.25205,6.17534c0.6192,0.80361 2.41384,0.77135 3.07383,0.72164c4.40497,-0.33179 10.19003,0.33477 10.19003,0.33477c0,0 1.87986,-1.34929 2.19416,-1.49277c0.79691,-0.35513 -0.00081,0.49712 1.96668,2.04308c1.07872,0.84761 1.6712,0.6013 2.5226,0.32638c0.34324,-0.11397 0.54786,-0.48598 0.83189,-0.7012c0.36346,-0.27432 7.67692,-5.43136 8.41923,-5.66336c0.74232,-0.232 0.70994,1.25205 0.58757,1.61302c-1.34861,3.97863 -5.00953,6.71587 -5.00953,6.71587c0,0 -0.28267,0.58229 -0.15548,1.19736c0.1151,0.55842 2.07721,4.66221 1.04861,4.41323c-0.42752,0.04796 -1.48137,-0.45925 -1.48137,-0.45925c0,0 -1.05737,-0.61435 -1.81388,-1.4857c-0.53509,-0.61967 -0.84671,-1.58216 -0.84671,-1.58216c0,0 -0.24319,-0.78242 -0.96247,-1.00847c-1.73749,-0.54608 -3.0348,0.07803 -3.48103,0.61677c-0.3823,0.46066 -0.14742,1.23642 -0.14742,1.23642c0,0 0.54048,0.61187 0.21001,0.64351c-1.4336,0.12904 -2.10329,-0.96109 -3.10009,-1.56451c-0.34729,-0.20849 -0.87866,-0.55388 -1.7782,0.15616c-0.45225,0.35698 -0.78069,2.18637 -1.4841,2.79493c-0.47384,0.40995 -1.23168,-0.0626 -1.23168,-0.0626c0,0 -1.15295,-0.4171 -1.96802,-0.44031c-3.71685,1.9126 -10.46732,3.66916 -10.46732,3.66916c0,0 0.89986,1.11162 1.37169,1.87821c0.2342,0.38225 0.22479,0.71176 0.22479,0.71176c0,0 0.2349,0.52358 -0.25442,0.59638c-0.29009,0.04221 -3.1122,-0.44482 -4.61984,-1.05988c-1.2694,-0.51835 -2.27223,-1.27723 -2.27223,-1.27723c0,0 -4.61939,0.39512 -7.58218,0.52172c-1.72571,0.07105 -6.86647,0.04618 -7.12339,-0.88989z" id="svg_24"/>
  <path fill="#0eef4e" stroke="#000" stroke-width="1.5" stroke-opacity="null" d="m133.90035,22.28816c-0.33002,0 -0.49965,-0.35151 -0.49965,-0.77303c0,-0.35143 0.0848,-0.69263 0.33002,-0.69263c0.16963,0 0.42499,0.3412 0.50979,0.69263c0.16964,0.51167 0,0.77303 -0.34016,0.77303zm56.41379,20.05674c0.75504,0 0.92465,0.09015 0.49966,0.69254c-0.24522,0.42152 -0.75501,0.77295 -1.00023,0.77295c-0.25533,0 -0.50979,-0.35143 -0.50979,-0.77295c0,-0.43186 0.34018,-0.69254 1.01036,-0.69254zm-52.7134,-24.53391c-0.75501,-0.17056 -0.83984,-1.03423 0,-1.29499c0.42497,-0.0803 0.67021,0.17053 0.67021,0.69262c0,0.43181 -0.24524,0.68275 -0.67021,0.60237zm-9.41137,27.28414c1.01037,-0.25097 1.01037,-0.43135 0.67021,-1.02392c-0.25446,-0.43135 -0.33927,-0.95339 -0.16964,-1.12397c0.08481,-0.26123 0.5098,0 0.75501,0.51172c0.34016,0.69263 0.5946,0.78332 1.26481,0.35143c0.41577,-0.26073 0.75501,-0.43175 0.75501,-0.17053c0,0.17053 0.25536,0 0.58538,-0.35143c0.50981,-0.51173 0.59462,-1.63616 0.08483,-2.23858c-0.41485,-0.51173 -2.52039,-0.34115 -3.10577,0.26073c-0.33927,0.43189 -0.59462,0.34169 -0.92465,-0.43126c-0.50979,-1.28523 -0.50979,-1.46566 0.67019,-1.54596c1.01036,0 1.01036,0 0.16963,-0.52204c-0.42407,-0.25097 -0.83982,-0.77295 -0.83982,-1.11415c0,-0.86362 1.17076,-1.37535 1.68056,-0.77293c0.16963,0.25091 0.49967,0.51173 0.83983,0.51173c0.67021,0 3.87,-2.92092 3.87,-3.52335c0,-0.26119 0.33095,-0.43172 0.67021,-0.26119c0.41575,0.09066 1.17078,-0.17053 1.93593,-0.60243c1.08503,-0.69257 1.08503,-0.77295 0.49965,-1.89692c-0.41485,-0.77295 -0.92464,-1.03423 -2.10464,-1.03423c-1.34039,0 -1.68055,0.17061 -2.0954,1.20484c-0.17055,0.69255 -0.68032,1.2043 -1.01037,1.2043c-0.58538,0 -0.75501,-0.77249 -0.16963,-1.2043c0.25444,-0.17061 0.42407,-0.77295 0.42407,-1.37537c0,-0.94359 -0.16963,-1.11415 -1.2648,-0.86316c-1.09517,0.17053 -1.09517,0.09015 -0.83984,-1.2049c0.16963,-0.77292 0.41485,-1.46549 0.5854,-1.54587c0.16963,-0.09015 0.33924,-0.86316 0.33924,-1.63611c0,-1.54604 0.50057,-1.80678 1.42614,-0.69263c0.42404,0.6024 0.67942,0.69263 0.83981,0.17053c0.16963,-0.34114 0.76423,-0.42152 1.68979,-0.25099c1.25559,0.3412 1.3404,0.25099 1.17076,-0.77295c-0.0848,-0.60234 -0.17052,-1.29497 -0.25533,-1.4655c0,-0.26082 -0.41485,-0.60242 -0.91543,-0.86324c-1.01036,-0.43173 -1.2648,-1.46549 -0.34016,-1.46549c0.25536,0 0.50056,-0.17062 0.50056,-0.51228c0,-0.26081 0.50981,-0.43134 1.18,-0.35148c0.92556,0.09067 1.42521,-0.25086 2.69002,-2.05755c0.92556,-1.29505 1.59574,-1.98762 1.68057,-1.63619c0.08481,0.43135 0.50979,0.68226 0.92554,0.68226c0.67021,0 0.75504,-0.25091 0.50982,-1.37489c-0.08573,-0.773 -0.50982,-1.71649 -0.76515,-2.14838c-0.75504,-0.95377 -0.75504,-2.06792 0,-1.72685c0.59459,0.34168 2.44478,-0.60188 2.44478,-1.20428c0,-0.26122 0.24614,-0.43181 0.58538,-0.43181c0.34018,0 0.50057,0.52202 0.50057,1.20482c0,0.86316 0.16963,1.20435 0.59462,0.95336c0.33002,-0.18041 0.58541,-0.69263 0.58541,-1.03374c0,-1.03429 2.68999,-2.84101 3.36017,-2.32882c0.25539,0.17067 0.5098,0 0.59557,-0.60234c0.2452,-1.20481 1.76443,-2.14838 2.43462,-1.54596c0.34018,0.25092 0.67023,0.17062 0.75596,-0.09015c0.1696,-0.34166 0.83981,-0.60242 1.59482,-0.68285c0.75501,-0.09015 1.76538,-0.43181 2.19037,-0.78324c1.59482,-1.11415 3.1906,-1.03377 3.86078,0.17113c0.42499,0.8631 0.59459,0.8631 0.59459,0.26068c0,-0.77301 0.33097,-0.86316 2.35079,-0.60234c3.19981,0.34166 3.70038,0.34166 4.88038,-0.09023c0.75501,-0.25097 1.01035,-0.17059 1.01035,0.52196c0,0.43189 0.24524,0.77303 0.5854,0.77303c0.25444,0 0.49965,-0.25099 0.49965,-0.51222c0,-0.69254 1.35056,-1.03374 2.53053,-0.69254c0.91543,0.34166 1.00023,0.43173 0.75501,2.75069c-0.0848,1.3852 0,2.32876 0.16042,2.32876c0.16961,0 0.34016,-0.60242 0.34016,-1.46557c0,-1.45576 0.92464,-2.05769 1.2648,-0.86319c0.08483,0.43138 0.33002,0.26076 0.49966,-0.4215c0.42501,-1.80723 1.35055,-0.8637 1.09517,1.11415c-0.25441,1.63611 -0.25441,1.63611 0.5006,1.03369c0.42496,-0.26076 0.75498,-0.94348 0.75498,-1.37488c0,-0.43184 0.25539,-0.94403 0.59465,-1.12447c0.67016,-0.34106 1.42612,0.95345 1.17997,1.89739c-0.0848,0.43143 -0.0848,0.77301 0.16039,0.77301c0.17056,0 0.34019,-0.25091 0.34019,-0.43181c0,-0.25097 0.41575,-0.3412 0.92554,-0.17053c1.09427,0.26076 1.25466,0.9533 0.33005,1.37483c-0.24522,0.1809 -0.50058,0.60242 -0.50058,0.9539c0,0.60243 0.17053,0.60243 1.09517,0c1.51002,-1.03374 2.18021,-0.9539 2.43559,0.17053c0.1696,0.60243 0.50055,0.86365 0.83981,0.60243c0.34016,-0.09021 1.09517,0.26122 1.68058,0.86315c0.50979,0.51219 1.2648,0.94357 1.60496,0.94357c0.50058,0 0.50058,0.43186 0.33002,1.63662c-0.1696,1.29505 -0.1696,1.46558 0.34019,0.94362c0.67018,-0.85341 0.92464,-0.77309 1.17078,0.43127c0.08481,0.60242 0.6794,1.03423 1.34961,1.29499c0.75501,0.17113 1.17078,0.6024 1.17078,1.11461c0,0.52202 0.25441,1.12398 0.50979,1.46564c0.67021,0.60234 0.49966,2.40906 -0.25538,3.01145c-0.25441,0.18044 -0.58535,0.09023 -0.67018,-0.17053c-0.16961,-0.26128 -0.75501,-0.26128 -1.85021,0c-1.76538,0.60188 -2.0954,0.77295 -1.68055,1.55573c0.25536,0.51173 3.1915,0.3412 4.79556,-0.26123c0.50058,-0.26078 0.67021,0 0.67021,1.20485c0,0.8631 -0.16963,1.54596 -0.42407,1.54596c-0.17055,0 -0.33094,0.26073 -0.33094,0.69254c0,1.03418 0.41577,0.94348 1.51094,-0.26081c0.58446,-0.69255 0.92462,-0.86362 1.34039,-0.43173c0.42407,0.43173 0.50979,0.43173 0.50979,-0.26082c0,-0.42204 -0.17055,-0.77295 -0.42496,-0.77295c-0.16042,0 -0.33097,-0.34166 -0.33097,-0.68286c0,-0.43175 0.24614,-0.77295 0.58538,-0.77295c0.25536,0 0.59462,0.17053 0.59462,0.42152c0,0.26134 0.33095,0.6024 0.75593,0.69263c0.58449,0.26128 0.75502,0.60242 0.67019,1.63616c-0.17053,1.97772 0.16965,2.58019 1.42522,2.23905c0.59462,-0.17113 0.92461,0 0.6702,0.34114c-0.07558,0.17054 0,0.60243 0.16963,0.78273c0.68033,0.51224 0.42497,1.71662 -0.33004,1.71662c-0.92554,0 -1.18,0.43173 -0.6794,1.20476c0.33924,0.43181 0.59459,0.51173 0.92462,0.17059c0.76514,-0.86316 0.92556,-0.17059 1.01036,3.27281c0,1.72626 0.16963,3.10169 0.33927,3.10169c0.41574,0 0.25535,1.89739 -0.33927,2.67034c-0.33094,0.43135 -0.33094,0.85285 -0.0848,1.20427c0.59459,0.77304 0,3.01162 -0.75596,3.01162c-0.67016,0 -1.93498,1.63611 -1.93498,2.40912c0,0.94408 -1.08504,0 -1.34039,-1.03377c-0.25444,-0.94354 -0.25444,-0.94354 -0.42499,-0.26122c-0.16039,0.78326 0.75593,3.19238 1.52018,3.8751c0.50055,0.52209 -0.42499,1.38519 -1.09519,1.03377c-0.34019,-0.17053 -0.50058,-0.68226 -0.50058,-1.2043c0,-1.4655 -2.10464,-5.15989 -3.70039,-6.54504c-0.84903,-0.68285 -1.60406,-1.45581 -1.60406,-1.71654c0,-0.52204 -2.69092,-2.14838 -4.20094,-2.6704c-0.84077,-0.26122 -1.0952,-0.17055 -1.0952,0.52202c0,0.51173 -0.16039,0.68226 -0.50058,0.51173c-0.75501,-0.3412 -1.09517,0.43189 -0.42496,1.20484c0.92554,0.94354 0.76515,2.06792 -0.24522,1.63611c-0.67942,-0.26076 -0.76425,-0.17061 -0.50979,1.29502c0.0848,0.85333 0.25536,1.97771 0.25536,2.48944c0,0.52204 0.1696,0.86324 0.33923,0.86324c0.24617,0 0.33095,-0.17061 0.16042,-0.43135c-0.0848,-0.26128 0.08575,-0.51222 0.42496,-0.51222c0.25539,0 0.50058,0.34161 0.50058,0.68275c0,0.35149 -0.33092,0.69255 -0.92554,0.60248c-0.49965,0 -0.92464,-0.25099 -0.92464,-0.42158c0,-0.78332 -2.26596,-6.11374 -2.93614,-6.89652c-0.75504,-0.85341 -0.25446,-1.11415 -6.2208,2.93113c-0.92462,0.60242 -1.93499,1.89739 -2.44478,2.84101c-0.41577,0.94348 -1.08596,1.89739 -1.42522,2.06792c-0.34016,0.17061 -1.59575,1.54596 -2.69094,3.01154c-4.71076,6.45434 -3.94561,7.22734 -3.61556,20.40821c1.42611,9.98792 1.42611,9.98792 1.42611,9.98792c-3.36112,0 -3.36112,0 -3.36112,0c-2.77483,0 -2.77483,0 -2.77483,0c0.25444,-9.21548 0.25444,-9.21548 0.25444,-9.21548c0.1696,-0.77244 0.25535,-2.32868 0.34018,-3.19192c0.08481,-0.51219 -2.36,-2.75077 -2.27517,-3.26245c0,-0.43181 2.52961,0.77304 2.52961,0.34115c0.41575,-6.28381 0,-11.28297 -1.0952,-13.94352c-0.25443,-1.63619 -2.35997,-6.896 -2.69,-6.896c-0.08482,0 -0.67942,-0.51219 -1.2648,-1.11461c-1.01039,-1.12392 -1.42522,-1.20435 -7.06154,-1.54596c-6.05115,-0.35096 -6.05115,-0.35096 -6.05115,-0.35096c-1.43443,1.20435 -1.43443,1.20435 -1.43443,1.20435c-0.83981,0.78324 -1.68055,1.29499 -1.92579,1.29499c-0.5098,0 -2.61534,1.80716 -3.53076,2.84085c-0.08481,0 -0.16961,-0.09007 -0.16961,-0.17053c-0.08483,0 -0.08483,0 -0.08483,-0.09021c-0.0848,-0.25091 -0.17052,-0.51219 -0.34016,-0.77295c0.5098,-0.43181 0.92554,-0.69303 1.09518,-0.60234c0.25443,0.17053 0.50057,0 0.50057,-0.43189c0,-0.43135 -0.50057,-0.60239 -1.84096,-0.43135c-1.60499,0.26082 -2.02074,0.35097 -2.27517,1.37492c-0.41578,0.52201 -0.50058,1.29502 -0.25444,1.89744c-0.08575,0.77295 -0.08575,1.29496 0,1.29496c0.0848,0 0.16961,-0.17053 0.42407,-0.35143c0,0.09024 0.0848,0.1809 0.17053,0.26123c-0.84074,0.26076 -1.26573,1.03377 -1.18,1.80672c-0.42497,0.35143 -0.84074,0.52201 -1.35051,0.78278c0,0 0,-0.09015 -0.07561,-0.09015c0.33095,-0.77296 0.50058,-1.6362 0.58538,-2.93116c0.17055,-1.45581 0.0848,-2.40912 -0.16961,-2.40912c-0.16963,0 -0.34016,0.35143 -0.34016,0.86308c0.08478,0.43189 -0.07561,0.86324 -0.41487,0.94362c-0.25536,0.09015 -0.42496,-0.08038 -0.42496,-0.51173c0,-1.03423 -0.33005,-1.03423 -1.08599,-0.09067c-0.33923,0.35143 -1.00944,0.77301 -1.59482,0.95391c-0.76515,0.25091 -1.01037,0.0803 -1.35053,-0.86324c-0.25443,-0.77295 -0.42406,-1.63663 -0.25443,-1.97777c0.0848,-0.43181 0.0848,-0.78278 -0.24522,-0.78278c-0.92557,0 -0.25536,-1.37543 0.83981,-1.63665zm7.23114,-19.79551c-0.50979,-0.09015 -0.92556,-0.34115 -1.09517,-0.69258c-0.08482,-0.51219 -0.16963,-0.51219 -0.16963,0c0,0.35143 -0.34016,0.60243 -0.67021,0.69258c-0.59459,0 -0.59459,0.0902 0.08483,0.43189c0.41483,0.17053 0.83981,0.43126 0.92462,0.43126c0.07559,0 0.50057,-0.26073 0.92556,-0.43126c0.75501,-0.43189 0.75501,-0.43189 0,-0.43189zm66.66498,13.86313c0.16042,0.17061 0.33005,-0.09067 0.33005,-0.52202c0,-0.3416 -0.16963,-0.6828 -0.33005,-0.6828c-0.25533,0 -0.42496,0.17058 -0.42496,0.42152c0,0.26128 0.16963,0.61271 0.42496,0.7833zm-0.59459,0.773c-0.0848,-0.26128 -0.50058,-0.60239 -0.84074,-0.60239c-0.24522,0 -0.41485,0.34111 -0.24522,0.60239c0.07559,0.26076 0.41575,0.43138 0.75501,0.43138c0.33095,0 0.41575,-0.17062 0.33095,-0.43138zm-0.75501,3.87464c0.25443,0 0.59459,-0.09015 0.59459,-0.17053c0,-0.1809 -0.34016,-0.35143 -0.59459,-0.52204c-0.33095,-0.17058 -0.58541,-0.08038 -0.58541,0.17061c0,0.26123 0.25446,0.52196 0.58541,0.52196zm0.67021,-8.18114c0.33923,-0.17067 0.50976,-0.43186 0.42406,-0.68286c-0.25446,-0.61216 -1.67968,-0.61216 -1.67968,0c0,0.68286 0.49968,0.94362 1.25562,0.68286zm-4.61672,-6.45494c-0.42499,0.26128 -0.67942,0.77301 -0.59464,1.03423c0.42499,0.68234 0.92559,0.51173 1.34963,-0.60242c0.41577,-1.03423 0.24614,-1.20476 -0.75499,-0.43181zm-1.60499,13.26074c2.19035,2.31888 2.27517,2.40911 2.27517,1.63616c0,-0.43135 -0.16963,-0.78278 -0.42498,-0.78278c-0.2452,0 -0.67019,-0.43189 -0.92462,-0.94353c-0.24525,-0.51228 -0.75501,-1.03432 -1.17078,-1.03432c-0.76423,0 -0.76423,0.0907 0.24521,1.12447zm-1.76448,-4.0556c0.5089,0 0.75504,-0.17053 0.42409,-0.25093c-0.25443,-0.17059 -0.6702,-0.17059 -0.92464,0c-0.25538,0.0804 0,0.25093 0.50055,0.25093zm-2.43556,-11.70449c0.25444,0.26082 1.00945,0.60196 1.67963,0.77304c1.18003,0.26073 1.26483,0.26073 0.59462,-0.43181c-0.76423,-0.85342 -2.85963,-1.11415 -2.27425,-0.34123zm-5.12653,-14.28457c-0.25443,0.25091 -0.33923,0.77295 -0.25443,1.11407c0.16963,0.69263 0.67021,0.09023 0.67021,-0.94354c0,-0.52204 -0.08483,-0.60242 -0.41578,-0.17053zm2.52039,18.59116c0.67021,0.43129 0.92557,0.43129 1.26575,-0.17108c0.67019,-0.94359 0.2452,-1.37488 -1.01039,-0.77292c-1.01037,0.42199 -1.01037,0.42199 -0.25536,0.944zm-1.67963,-4.30659c1.26481,-0.94345 1.26481,-0.94345 0.25444,-0.94345c-0.67942,0 -1.18,0.34106 -1.43443,0.94345c-0.16042,0.60196 -0.33095,0.94362 -0.24615,0.94362c0,0 0.67021,-0.51224 1.42615,-0.94362l-0.00001,0zm-1.8502,13.95337c0.58445,0.94361 1.59485,0.94361 1.2648,-0.09021c-0.0848,-0.3416 -0.17053,-0.77295 -0.17053,-0.86364c0,-0.08039 -0.33926,-0.08039 -0.75501,0.09069c-0.67942,0.17058 -0.67942,0.43135 -0.33926,0.86316zm-2.60612,-3.53356c0.67018,0.9436 1.01037,1.03375 1.76538,0.3412c0.50058,-0.43135 0.50058,-0.43135 0,-0.51173c-0.25443,0 -0.92464,-0.09069 -1.51002,-0.26128c-0.84074,-0.34114 -0.84074,-0.34114 -0.25536,0.43181zm-0.0848,-9.38604c0.42496,0 0.92554,-1.37534 0.67021,-1.80669c-0.33005,-0.43181 -1.00947,0.26073 -1.00947,1.03374c0,0.43184 0.16963,0.77295 0.33926,0.77295zm-4.11524,5.85247c-0.50979,0.35143 -0.42496,0.43189 0.24524,0.43189c0.42497,0 0.92462,-0.17113 1.09518,-0.43189c0.2544,-0.68272 -0.58541,-0.68272 -1.34042,0zm0.08483,7.57885c0.07559,0.0907 0.33002,-0.0902 0.58538,-0.51172c0.25441,-0.35143 1.00947,-0.78324 1.59482,-0.95385c0.75501,-0.26082 1.0952,-0.68232 1.0952,-1.29502c0,-1.45522 -1.18,-1.02395 -2.43561,0.86367c-0.50977,0.95339 -0.92462,1.72639 -0.83979,1.89692zm-0.92554,-3.96489c0.75498,-0.94349 0.75498,-1.11462 0.16036,-1.37538c-0.67018,-0.3412 -1.16983,0.43189 -1.16983,1.80672c-0.08573,1.03423 -0.08573,1.03423 1.00947,-0.43134zm-1.34963,-10.15897c0.0848,0.69254 0.25443,0.60239 0.75498,-0.6828c0.59465,-1.37492 0.59465,-1.55581 0.08483,-1.55581c-0.33002,0 -0.67021,0.26081 -0.75501,0.69265c-0.16963,0.34112 -0.16963,1.12443 -0.0848,1.54596zm-0.41578,-7.05684c0,0.35096 0.16039,1.20435 0.33095,1.80672c0.25443,1.20481 0.25443,1.20481 0.50979,0.17058c0.33002,-1.03369 0,-2.57964 -0.50979,-2.57964c-0.24614,0 -0.33095,0.26068 -0.33095,0.60234zm-5.88983,2.84046c-0.41575,0.60242 -0.41575,1.20484 -0.08573,3.01154c0.17056,1.29499 0.59555,2.59001 0.84074,2.841c0.42499,0.43181 0.50979,0 0.5946,-2.66993c0,-3.26253 -0.42497,-4.29668 -1.34961,-3.18261zm0.75501,9.12528c0.08483,0.17061 0.25444,-0.17059 0.16963,-0.68278c0,-0.52204 -0.0848,-0.60242 -0.25443,-0.26076c-0.07561,0.34114 -0.07561,0.77295 0.0848,0.94354zm3.03018,-8.09105c-0.0848,0.17061 -0.0848,1.37543 0.16963,2.66993c0.25536,2.23905 0.33095,2.3292 0.41578,0.69304c0.0848,-2.6704 -0.08483,-3.96537 -0.58541,-3.36297zm-2.86055,24.28294c0.50979,-1.03423 1.34963,-2.76063 1.93501,-3.79478c0.67019,-1.11423 1.09517,-2.57973 1.26481,-4.0453c0.24614,-2.31897 0.24614,-2.31897 0.24614,-2.31897c-1.01037,1.2852 -1.01037,1.2852 -1.01037,1.2852c-0.50058,0.69262 -0.83984,1.46558 -0.83984,1.72639c0,0.68275 -1.59575,4.98925 -2.09632,5.76226c-0.25444,0.43127 -0.67943,1.3852 -0.75501,2.06792c-0.42499,1.97736 0.33094,1.63616 1.25558,-0.68272zm-5.96634,8.864c0.25536,1.71649 0.25536,1.71649 1.0952,-1.9778c0.50057,-1.98764 1.25558,-5.16966 1.76537,-7.14748c0.67019,-2.49935 0.92554,-4.56726 0.92554,-7.48857c0,-3.7944 -0.08572,-3.87478 -0.7559,-3.44289c-1.51927,1.11413 -2.36,4.21581 -2.69927,10.23881c-0.16039,3.10228 -0.33094,6.20397 -0.50055,6.88677c-0.08482,0.69257 0,1.9876 0.16961,2.93116zm0.17055,-22.03459c0.33003,0.85339 0.67021,1.54596 0.67021,1.54596c0.0848,0 0.49963,-0.52204 0.83981,-1.20476c0.42497,-0.60193 1.09518,-1.2945 1.34963,-1.5455c1.00113,-0.78323 1.25557,-3.19235 0.41575,-4.82851c-0.6702,-1.46558 -2.52039,-3.10223 -2.86057,-2.58019c-0.16961,0.17058 -0.41483,1.80723 -0.58538,3.70416c-0.33924,2.84092 -0.33924,3.70454 0.17055,4.90884zm-0.50979,-19.71553c0.16963,0.17107 0.33924,0.08038 0.33924,-0.18036c0,-0.34166 -0.16961,-0.68286 -0.33924,-0.85341c-0.25536,-0.18087 -0.41577,-0.09021 -0.41577,0.25099c0,0.26076 0.16042,0.60242 0.41577,0.78278zm-27.23479,23.14859c1.17076,0.09067 1.17076,0.09067 1.17076,0.09067c1.18,0 2.35999,-1.11461 2.35999,-2.06792c0,-0.60242 -0.0848,-0.60242 -3.53075,1.97726l0,-0.00001zm0.50057,-2.40914c0,0.26136 0.16963,0.52204 0.42499,0.52204c0.41485,0 1.59483,-1.54596 1.34039,-1.80669c-0.25535,-0.35143 -1.76538,0.77292 -1.76538,1.28465zm0.92554,-5.93276c1.26483,1.71695 1.85021,1.88754 2.52039,0.77292c0.67943,-1.03368 0.08483,-1.72631 -1.9359,-1.9773c-1.67966,-0.26128 -1.67966,-0.26128 -0.58449,1.20438zm-0.92554,-4.82808c0,0.18035 0.5946,0.60188 1.26481,0.9533c3.10579,1.63619 3.70038,1.63619 3.61556,0.08047c0,-0.94362 -1.26481,-3.0116 -1.76538,-3.0116c-0.5946,0 -3.11499,1.63617 -3.11499,1.97783zm4.54113,12.2265c0.92464,0 1.00944,-0.26081 0.25443,-0.68234c-0.34016,-0.09067 -0.6702,0 -0.75501,0.25099c-0.17055,0.26068 0.08481,0.43135 0.50058,0.43135zm0.67021,-20.22735c-0.58541,-0.43186 -1.34134,-0.60239 -1.68058,-0.43186c-0.58538,0.34166 -0.50058,0.43186 0.33924,0.69254c0.41577,0.17113 1.26575,0.34169 1.68057,0.42207c0.50058,0 0.50058,-0.17107 -0.33923,-0.68275zm-0.07559,3.10169c0.49963,0 0.58538,-0.0902 0.24522,-0.35097c-0.24522,-0.08032 -0.58541,-0.08032 -0.75504,0.09024c-0.0848,0.17053 0.16963,0.34119 0.50982,0.26073zm0.49963,1.97785c-1.17998,0 -1.17998,0.0803 -0.49963,0.77293c0.83981,0.77295 1.08503,0.8631 1.42522,0.34114c0.58535,-0.68234 0.1696,-1.11407 -0.92559,-1.11407zm1.6806,-9.72724c-0.34019,-0.43181 -0.42499,0.3412 -0.25446,1.28474c0.0848,0.60242 0.42406,1.12438 0.59462,1.12438c0.33002,0 0.0848,-1.89739 -0.34016,-2.40912zm2.68999,11.36327c-0.1696,0.08046 0.25536,0.60242 0.75594,1.03428c0.50979,0.43135 0.92461,0.60191 0.92461,0.34115c0,-0.60234 -1.42519,-1.72678 -1.68055,-1.37543zm-2.10464,0.60242c-0.75501,0.60248 -0.33002,2.14835 0.76425,2.40917c0.58538,0.17056 1.51095,0.86318 2.09633,1.54591c0.50979,0.69262 0.92461,0.9539 0.92461,0.69262c0,-0.86315 -3.3602,-4.99913 -3.78519,-4.6477zm3.44596,7.14757c-0.50055,-1.38572 -1.08596,-2.06806 -2.18116,-2.49987c-0.83981,-0.34114 -1.68055,-0.52196 -1.93498,-0.43129c-0.25536,0.09015 0.75501,1.2043 2.19037,2.49929c2.68999,2.23859 2.68999,2.23859 1.92577,0.43187zm4.46461,-13.26079c-0.16963,0 -0.34018,0.34119 -0.34018,0.68234c0,0.43181 0.17055,0.69262 0.34018,0.69262c0.24522,0 0.41578,-0.26081 0.41578,-0.69262c0,-0.34115 -0.17056,-0.68234 -0.41578,-0.68234zm-0.76422,7.05684c0,0.60234 1.43443,0.17058 2.01981,-0.60242c0.83984,-1.29497 0.75501,-1.63617 -0.34016,-1.63617c-0.75501,0 -1.67965,1.20488 -1.67965,2.23859zm2.4448,-18.59124c-0.25536,1.11415 -0.42499,2.05769 -0.34016,2.14838c0.25533,0.3412 0.92556,-2.23853 0.92556,-3.27276c0,-0.43135 -0.25538,0.09069 -0.5854,1.12438zm4.37059,17.3864c-0.42498,0 -0.75503,0.17112 -0.75503,0.51219c0,0.26081 0.24522,0.43189 0.49965,0.43189c0.34016,0 0.67021,-0.17108 0.75594,-0.43189c0.16963,-0.34107 -0.08573,-0.51219 -0.50055,-0.51219l-0.00001,0zm-1.01039,16.18204c0.50058,1.55627 1.25559,3.01153 1.68058,3.36296c0.42499,0.26082 1.2648,1.46564 1.76538,2.6704c0.50057,1.20435 1.01036,2.14792 1.09519,2.14792c0.41483,0 -0.42499,-7.92 -1.01036,-10.32958c-0.50982,-2.06746 -0.67024,-3.9649 -0.58541,-6.97644c0.07559,-2.23853 0,-4.21635 -0.1696,-4.38691c-0.08483,-0.17059 -0.67021,-0.17059 -1.18,0c-0.92557,0.34114 -1.01037,0.60242 -1.01037,2.49981c0,1.45529 -0.16966,2.23858 -0.58541,2.57964c-1.17997,0.77304 -1.09517,5.15992 0,8.4322zm-2.43556,-11.53385c-0.16963,-1.295 -0.33924,-1.46558 -1.2648,-1.46558c-1.0952,0 -1.0952,0.0902 -1.01037,1.89692c0,1.11461 0.17053,2.40958 0.25533,3.01151c0.08483,0.60242 0.41578,1.20476 0.75504,1.295c0.67018,0.43186 1.42519,-2.57965 1.2648,-4.73785zm-1.2648,8.69292c-0.75504,-1.03377 -1.2648,-2.14792 -1.34042,-2.40912c0,-0.34114 -0.42496,-1.20429 -0.92464,-1.9773c-0.50979,-0.77295 -1.09517,-1.7268 -1.35053,-2.068c-0.83981,-1.20476 -0.67021,-0.17053 0.25536,2.49935c0.58538,1.80715 1.59485,3.44334 2.77482,4.81869c2.18113,2.32873 2.43559,1.89701 0.58541,-0.86362zm-1.34042,4.22612c0.91543,0 0.83984,-0.09015 -0.42496,-1.46549c-0.83984,-0.86324 -1.42522,-1.80678 -1.42522,-2.23862c0,-0.34111 -1.0952,-1.55578 -2.35997,-2.66993c-1.25562,-1.12435 -2.43562,-2.2385 -2.60522,-2.58011c-0.17056,-0.43134 -0.25536,-0.43134 -0.25536,0.08038c0,0.52205 -0.41485,0.60234 -1.76538,0.34115c-0.92464,-0.17061 -1.67965,-0.17061 -1.67965,-0.07992c0,0.17058 0.33924,1.20435 0.67942,2.2385c0.58541,1.71657 0.83981,2.06806 2.69002,2.75034c1.17079,0.43181 3.02094,1.46555 4.20094,2.23851c1.0952,0.78332 2.43559,1.38519 2.94538,1.38519zm-13.12188,2.92131c0.34016,0 0.84074,-0.17053 1.17998,-0.43173c0.5854,-0.60196 0.08575,-0.60196 -1.00945,0c-0.50057,0.2612 -0.58538,0.34158 -0.17052,0.43173l-0.00001,0zm-0.92464,-2.14835c0.83984,-0.35092 3.53076,-0.69258 5.97556,-0.69258c4.61582,-0.08038 5.54136,-0.34106 3.69115,-0.86315c-0.58535,-0.17053 -1.92577,-0.60242 -3.02094,-1.03377c-1.93501,-0.77295 -5.89076,-0.51219 -6.30561,0.35105c-0.08572,0.17099 -0.50979,0.26119 -0.92554,0.17099c-0.83984,-0.26122 -1.68057,0.4314 -1.93501,1.80678c-0.34016,1.11406 0.25444,1.20476 2.52039,0.26068zm-6.72135,1.97782c0.16963,0.69262 1.01037,0.77295 1.68057,0.17053c0.41483,-0.34112 0.41483,-0.51165 0,-1.03369c-0.34016,-0.51227 -0.58538,-0.51227 -1.09517,-0.08038c-0.34016,0.25099 -0.5854,0.68234 -0.5854,0.94354zm-2.69002,6.02307c0.33004,0 0.49968,0.26082 0.33004,0.77301c-0.07561,0.35143 -0.33004,0.69257 -0.50057,0.69257c-0.25444,0 -0.41485,-0.34114 -0.41485,-0.69257c0,-0.42152 0.24522,-0.77301 0.58538,-0.77301z" id="svg_25" transform="rotate(-179.03221130371094 165.41250610351562,42.900005340576165) "/>
  <text fill="#000000" stroke="#000" stroke-width="0" stroke-opacity="null" x="207.5" y="385" id="svg_26" font-size="24" font-family="Helvetica, Arial, sans-serif" text-anchor="start" xml:space="preserve">подводный мир</text>
  <path id="svg_3" d="m522.6662,345.601656c-1.49117,0.530557 -2.851892,1.23788 -4.223486,1.868325c-0.467434,0.214681 -0.998461,0.555922 -1.431653,0.660255c-1.103906,0.264886 -2.831238,-0.198469 -4.238433,-0.246844c-3.517171,-0.120023 -5.794282,0.128913 -8.68558,0.548338c-1.353113,0.195854 -2.754057,0.379418 -3.941666,0.714383c-1.014495,0.286328 -2.177646,0.926187 -3.312804,1.464328c-1.793915,0.850617 -3.015766,1.651552 -4.414536,2.677105c-2.337986,1.713002 -3.809861,3.869486 -5.520616,6.23882c-0.747079,1.034181 -1.822994,2.575125 -1.876531,3.798884c-0.98895,1.442101 -2.491533,2.322528 -2.86847,4.433513c0.526951,1.23448 1.892565,0.136758 2.715467,-0.2743c0.680497,-0.340979 1.41263,-0.748376 2.015674,-0.911805c3.134255,-0.850094 7.502048,0.365036 10.553687,-0.413934c1.081621,-0.275869 2.018664,-0.832836 3.093219,-1.068698c1.020474,-0.224617 1.800981,0.173104 2.528493,0.475384c0.386449,0.161076 0.793551,0.379156 1.14467,0.552522c2.273578,1.130409 4.54607,2.328804 7.598524,2.780131c2.449953,0.361637 4.57841,-0.328428 6.569897,-0.701308c0.505481,-0.09492 1.15853,-0.060404 1.541989,-0.475645c-1.589548,-0.345424 -2.908691,-0.934555 -4.568626,-1.563431c-2.180363,-0.825253 -3.873997,-1.383528 -4.697986,-3.04031c0.975905,-0.245798 2.106172,-0.063541 3.122026,0.107733c1.109341,0.186179 2.210257,0.361114 3.274757,0.529511c4.494706,0.712029 7.8798,1.907287 11.30131,3.457905c1.662109,0.752298 3.193772,1.8006 4.602597,2.680504c2.885319,1.804261 5.348317,4.044682 7.671357,6.485402c1.051455,1.105044 1.990672,2.488834 3.130994,3.807775c0.498415,0.576579 0.999548,1.219837 1.532206,1.931867c0.509014,0.676467 1.285716,1.505643 1.393334,2.097388c0.121207,0.653456 -0.239424,1.369931 -0.420963,2.084052c-0.313888,1.240495 -0.545431,2.571202 -0.440258,3.844906c0.137513,1.647369 0.520156,3.251853 1.322404,4.499931c0.34813,-0.297834 0.490262,-0.822115 0.669627,-1.302206c0.879429,-1.081511 2.049373,-2.161714 2.078452,-3.961529c2.402123,1.194473 7.06804,1.094323 9.869385,1.063206c0.842197,-0.009414 1.700156,0.076354 2.397775,-0.238738c-1.471331,-0.820546 -2.551321,-1.858912 -3.830243,-2.91898c-1.93496,-1.601608 -3.535379,-2.950882 -6.387815,-3.807775c-0.924541,-0.277699 -1.983063,-0.428054 -2.489631,-0.942661c-0.389438,-0.3938 -0.507927,-1.26612 -0.7055,-2.106278c-0.531299,-2.271538 -1.222123,-4.681665 -1.838484,-6.593397c-1.849626,-5.74644 -4.672712,-10.853544 -8.428763,-14.81978c-1.903436,-2.011359 -4.176471,-3.649314 -6.627239,-5.470571c-0.418788,-0.631753 -1.203371,-1.483939 -1.365343,-2.447258c-0.165776,-0.99182 0.133164,-1.862311 0.770179,-2.52858c1.393606,-0.978485 3.58321,-1.08674 4.530036,-2.551329c-1.237885,-0.857416 -2.773896,-1.108705 -4.2811,-1.248862c-3.256006,-0.303064 -6.306557,-0.067725 -8.832333,0.832052z" stroke-opacity="null" stroke-width="1.5" stroke="#000" fill="#ff02b7"/>
  <path transform="rotate(73.85897827148438 341.1524353027344,329.6443481445312) " id="svg_4" d="m341.6662,305.60166c-1.49117,0.53055 -2.85189,1.23788 -4.22349,1.86832c-0.46743,0.21468 -0.99846,0.55592 -1.43165,0.66026c-1.1039,0.26488 -2.83124,-0.19847 -4.23843,-0.24685c-3.51717,-0.12002 -5.79428,0.12891 -8.68558,0.54834c-1.35312,0.19585 -2.75406,0.37942 -3.94167,0.71438c-1.01449,0.28633 -2.17764,0.92619 -3.3128,1.46433c-1.79392,0.85062 -3.01577,1.65155 -4.41454,2.67711c-2.33799,1.713 -3.80986,3.86948 -5.52061,6.23882c-0.74708,1.03418 -1.823,2.57512 -1.87654,3.79888c-0.98895,1.4421 -2.49153,2.32253 -2.86847,4.43351c0.52695,1.23448 1.89257,0.13676 2.71547,-0.2743c0.6805,-0.34098 1.41263,-0.74837 2.01568,-0.9118c3.13425,-0.8501 7.50204,0.36503 10.55368,-0.41394c1.08162,-0.27587 2.01867,-0.83283 3.09322,-1.06869c1.02048,-0.22462 1.80098,0.1731 2.52849,0.47538c0.38645,0.16108 0.79356,0.37916 1.14467,0.55252c2.27358,1.13041 4.54607,2.32881 7.59853,2.78013c2.44995,0.36164 4.57841,-0.32843 6.5699,-0.70131c0.50548,-0.09492 1.15853,-0.0604 1.54198,-0.47564c-1.58954,-0.34543 -2.90869,-0.93456 -4.56862,-1.56343c-2.18036,-0.82526 -3.874,-1.38353 -4.69799,-3.04031c0.97591,-0.2458 2.10617,-0.06354 3.12203,0.10773c1.10934,0.18618 2.21026,0.36111 3.27476,0.52951c4.4947,0.71203 7.8798,1.90729 11.30131,3.45791c1.66211,0.75229 3.19377,1.8006 4.60259,2.6805c2.88532,1.80426 5.34832,4.04468 7.67136,6.4854c1.05145,1.10505 1.99067,2.48884 3.13099,3.80778c0.49842,0.57658 0.99955,1.21983 1.53221,1.93186c0.50901,0.67647 1.28572,1.50565 1.39333,2.09739c0.12121,0.65346 -0.23942,1.36993 -0.42096,2.08405c-0.31389,1.2405 -0.54543,2.57121 -0.44026,3.84491c0.13752,1.64737 0.52016,3.25185 1.32241,4.49993c0.34813,-0.29783 0.49026,-0.82211 0.66962,-1.3022c0.87943,-1.08152 2.04938,-2.16172 2.07846,-3.96153c2.40212,1.19447 7.06804,1.09432 9.86938,1.0632c0.8422,-0.00941 1.70016,0.07636 2.39778,-0.23873c-1.47134,-0.82055 -2.55133,-1.85892 -3.83025,-2.91899c-1.93496,-1.6016 -3.53538,-2.95088 -6.38781,-3.80777c-0.92454,-0.2777 -1.98307,-0.42805 -2.48963,-0.94266c-0.38944,-0.3938 -0.50793,-1.26612 -0.7055,-2.10628c-0.5313,-2.27154 -1.22213,-4.68166 -1.83849,-6.5934c-1.84962,-5.74644 -4.67271,-10.85354 -8.42876,-14.81978c-1.90344,-2.01135 -4.17647,-3.64931 -6.62724,-5.47057c-0.41879,-0.63175 -1.20337,-1.48394 -1.36534,-2.44725c-0.16578,-0.99183 0.13316,-1.86232 0.77018,-2.52858c1.3936,-0.97849 3.58321,-1.08674 4.53003,-2.55133c-1.23788,-0.85742 -2.77389,-1.10871 -4.2811,-1.24887c-3.256,-0.30306 -6.30655,-0.06772 -8.83233,0.83206z" stroke-opacity="null" stroke-width="1.5" stroke="#000" fill="#ffffff"/>
  <path transform="rotate(-122.31007385253906 263.1524353027344,39.644340515136726) " id="svg_5" d="m263.6662,15.60166c-1.49117,0.53055 -2.85189,1.23788 -4.22349,1.86832c-0.46743,0.21468 -0.99846,0.55592 -1.43165,0.66026c-1.1039,0.26488 -2.83124,-0.19847 -4.23843,-0.24685c-3.51717,-0.12002 -5.79428,0.12891 -8.68558,0.54834c-1.35312,0.19585 -2.75406,0.37942 -3.94167,0.71438c-1.01449,0.28633 -2.17764,0.92619 -3.3128,1.46433c-1.79392,0.85062 -3.01577,1.65155 -4.41454,2.67711c-2.33799,1.713 -3.80986,3.86948 -5.52061,6.23882c-0.74708,1.03418 -1.823,2.57512 -1.87654,3.79888c-0.98895,1.4421 -2.49153,2.32253 -2.86847,4.43351c0.52695,1.23448 1.89257,0.13676 2.71547,-0.2743c0.6805,-0.34098 1.41263,-0.74837 2.01568,-0.9118c3.13425,-0.8501 7.50204,0.36503 10.55368,-0.41394c1.08162,-0.27587 2.01867,-0.83283 3.09322,-1.06869c1.02048,-0.22462 1.80098,0.1731 2.52849,0.47538c0.38645,0.16108 0.79356,0.37916 1.14467,0.55252c2.27358,1.13041 4.54607,2.32881 7.59853,2.78013c2.44995,0.36164 4.57841,-0.32843 6.5699,-0.70131c0.50548,-0.09492 1.15853,-0.0604 1.54198,-0.47564c-1.58954,-0.34543 -2.90869,-0.93456 -4.56862,-1.56343c-2.18036,-0.82526 -3.874,-1.38353 -4.69799,-3.04031c0.97591,-0.2458 2.10617,-0.06354 3.12203,0.10773c1.10934,0.18618 2.21026,0.36111 3.27476,0.52951c4.4947,0.71203 7.8798,1.90729 11.30131,3.45791c1.66211,0.75229 3.19377,1.8006 4.60259,2.6805c2.88532,1.80426 5.34832,4.04468 7.67136,6.4854c1.05145,1.10505 1.99067,2.48884 3.13099,3.80778c0.49842,0.57658 0.99955,1.21983 1.53221,1.93186c0.50901,0.67647 1.28572,1.50565 1.39333,2.09739c0.12121,0.65346 -0.23942,1.36993 -0.42096,2.08405c-0.31389,1.2405 -0.54543,2.57121 -0.44026,3.84491c0.13752,1.64737 0.52016,3.25185 1.32241,4.49993c0.34813,-0.29783 0.49026,-0.82211 0.66962,-1.3022c0.87943,-1.08152 2.04938,-2.16172 2.07846,-3.96153c2.40212,1.19447 7.06804,1.09432 9.86938,1.0632c0.8422,-0.00941 1.70016,0.07636 2.39778,-0.23873c-1.47134,-0.82055 -2.55133,-1.85892 -3.83025,-2.91899c-1.93496,-1.6016 -3.53538,-2.95088 -6.38781,-3.80777c-0.92454,-0.2777 -1.98307,-0.42805 -2.48963,-0.94266c-0.38944,-0.3938 -0.50793,-1.26612 -0.7055,-2.10628c-0.5313,-2.27154 -1.22213,-4.68166 -1.83849,-6.5934c-1.84962,-5.74644 -4.67271,-10.85354 -8.42876,-14.81978c-1.90344,-2.01135 -4.17647,-3.64931 -6.62724,-5.47057c-0.41879,-0.63175 -1.20337,-1.48394 -1.36534,-2.44725c-0.16578,-0.99183 0.13316,-1.86232 0.77018,-2.52858c1.3936,-0.97849 3.58321,-1.08674 4.53003,-2.55133c-1.23788,-0.85742 -2.77389,-1.10871 -4.2811,-1.24887c-3.256,-0.30306 -6.30655,-0.06772 -8.83233,0.83206z" stroke-opacity="null" stroke-width="1.5" stroke="#000" fill="#00e3fc"/>
  <path id="svg_6" d="m114.3575,134.75932c-1.11926,-2.1378 -3.45204,-1.75199 -5.18828,-2.2376c-1.44165,-0.71488 -3.64959,-1.40019 -4.67534,0.64458c-1.36885,1.90844 -2.5838,3.96632 -3.66501,6.11671c-2.26745,2.97212 -5.02078,5.3553 -7.78843,7.60388c-2.33136,1.37019 -4.88365,2.43874 -6.77092,4.67127c-3.58382,2.75022 -7.9495,3.25162 -11.91202,4.86388c0.70237,0.29214 3.81194,-0.76967 1.72171,0.39306c-1.55508,0.61267 0.61203,1.18205 1.30404,0.7733c-0.54639,0.69893 -0.69668,0.75608 -0.02472,0.74556c-1.22077,0.81606 2.71089,-0.25345 0.5459,0.88866c-0.94258,0.32976 -3.26028,3.37181 -1.13506,2.00135c1.97589,-0.98366 4.08214,-1.47845 6.13757,-2.15449c-1.53732,1.89062 -3.7281,3.07294 -4.78469,5.47018c0.02401,0.61876 1.63549,-1.25724 2.31687,-1.56455c3.87475,-2.80133 7.93459,-5.39759 12.29957,-6.91006c0.59609,0.17177 0.71266,2.08131 1.87449,1.10508c0.10199,1.21675 2.65393,-1.90861 1.98748,0.52894c4.10523,-1.08714 -0.00198,2.26588 1.02104,2.9249c0.52209,0.82495 2.66613,1.96366 0.9184,2.24636c-0.77247,1.38263 1.08295,-0.55464 1.48811,0.74067c1.5141,0.65786 0.41119,1.33232 -0.68479,0.93397c-0.83996,-0.13418 -1.01327,1.1863 -0.16425,0.36693c1.01384,0.83148 2.624,0.53283 3.91681,0.8903c1.29196,0.12819 2.85802,-1.5825 3.34768,-1.16784c-1.19083,-1.02227 -2.91469,0.22594 -4.2217,-0.56313c-0.27566,-1.06084 3.06367,0.37967 3.07043,-1.41346c1.56421,-0.17414 -1.31549,-0.41581 -1.87428,0.00722c-1.92464,0.1231 -2.91208,-2.01723 -4.267,-3.23248c0.04103,-2.52229 1.58757,-4.68915 3.2062,-6.11352c2.11178,-1.52116 4.27843,-3.48043 4.87651,-6.51641c0.62004,-2.70381 0.9653,-5.48996 1.24718,-8.26264c0.38133,-1.78899 1.47742,-3.44108 3.15871,-3.30762c0.90672,-0.15116 1.81673,-0.27668 2.71779,-0.473l0,0z" stroke-opacity="null" stroke-width="1.5" stroke="#000" fill="#f75bef"/>
 </g>
</svg>